<svg version="1.1" viewBox="0.0 0.0 924.5538057742782 349.04199475065616" fill="none" stroke="none" stroke-linecap="square" stroke-miterlimit="10" xmlns:xlink="http://www.w3.org/1999/xlink" xmlns="http://www.w3.org/2000/svg"><clipPath id="p.0"><path d="m0 0l924.55383 0l0 349.042l-924.55383 0l0 -349.042z" clip-rule="nonzero"/></clipPath><g clip-path="url(#p.0)"><path fill="#000000" fill-opacity="0.0" d="m0 0l924.55383 0l0 349.042l-924.55383 0z" fill-rule="evenodd"/><path fill="#76b900" d="m172.38623 209.9744l0 0c0 -5.076477 4.1152954 -9.191788 9.191788 -9.191788l121.74242 0c2.4378052 0 4.775757 0.9684143 6.4995728 2.692215c1.7237854 1.7237854 2.6921997 4.0617523 2.6921997 6.4995728l0 36.766037c0 5.076477 -4.1152954 9.191788 -9.191772 9.191788l-121.74242 0l0 0c-5.0764923 0 -9.191788 -4.1153107 -9.191788 -9.191788z" fill-rule="evenodd"/><path stroke="#000000" stroke-width="1.0" stroke-linejoin="round" stroke-linecap="butt" d="m172.38623 209.9744l0 0c0 -5.076477 4.1152954 -9.191788 9.191788 -9.191788l121.74242 0c2.4378052 0 4.775757 0.9684143 6.4995728 2.692215c1.7237854 1.7237854 2.6921997 4.0617523 2.6921997 6.4995728l0 36.766037c0 5.076477 -4.1152954 9.191788 -9.191772 9.191788l-121.74242 0l0 0c-5.0764923 0 -9.191788 -4.1153107 -9.191788 -9.191788z" fill-rule="evenodd"/><path fill="#ffffff" d="m186.96904 225.2748l-1.921875 0l0 -9.53125q1.84375 -0.0625 2.359375 -0.0625q2.0 0 3.15625 1.21875q1.171875 1.203125 1.171875 3.21875q0 5.15625 -4.765625 5.15625zm-0.609375 -8.359375l0 7.125q0.4375 0.0625 1.078125 0.0625q1.359375 0 2.140625 -1.015625q0.78125 -1.03125 0.78125 -2.859375q0 -3.375 -3.03125 -3.375q-0.1875 0 -0.96875 0.0625zm13.033264 8.484375l-4.921875 -6.96875l0 6.84375l-1.25 0l0 -9.53125l0.53125 0l4.796875 6.59375l0 -6.59375l1.234375 0l0 9.65625l-0.390625 0zm8.505798 0l-4.921875 -6.96875l0 6.84375l-1.25 0l0 -9.53125l0.53125 0l4.796875 6.59375l0 -6.59375l1.234375 0l0 9.65625l-0.390625 0zm6.583664 -0.125l0 -9.53125l1.296875 0l0 9.53125l-1.296875 0zm11.459488 0l0 -4.40625q0 -1.65625 -1.4375 -1.65625q-0.4375 0 -0.828125 0.28125q-0.390625 0.28125 -0.53125 0.625l0 5.15625l-1.25 0l0 -4.953125q0 -0.515625 -0.390625 -0.8125q-0.375 -0.296875 -1.015625 -0.296875q-0.375 0 -0.796875 0.296875q-0.40625 0.28125 -0.59375 0.625l0 5.140625l-1.234375 0l0 -6.96875l0.8125 0l0.40625 0.8125q0.71875 -0.9375 1.796875 -0.9375q1.484375 0 2.09375 0.921875q0.203125 -0.390625 0.765625 -0.65625q0.578125 -0.265625 1.171875 -0.265625q1.078125 0 1.671875 0.640625q0.59375 0.640625 0.59375 1.796875l0 4.65625l-1.234375 0zm6.92276 -0.796875q-0.734375 0.921875 -2.265625 0.921875q-0.828125 0 -1.4375 -0.59375q-0.59375 -0.59375 -0.59375 -1.484375q0 -1.046875 0.921875 -1.78125q0.9375 -0.734375 2.375 -0.734375q0.390625 0 0.890625 0.171875q0 -1.703125 -1.515625 -1.703125q-1.15625 0 -1.78125 0.625l-0.515625 -1.03125q0.34375 -0.28125 0.96875 -0.484375q0.625 -0.203125 1.1875 -0.203125q1.515625 0 2.203125 0.6875q0.6875 0.6875 0.6875 2.1875l0 2.5q0 0.921875 0.546875 1.21875l0 0.625q-0.75 0 -1.125 -0.21875q-0.375 -0.21875 -0.546875 -0.703125zm-0.109375 -2.625q-0.59375 -0.125 -0.828125 -0.125q-0.9375 0 -1.53125 0.484375q-0.59375 0.46875 -0.59375 1.125q0 1.09375 1.296875 1.09375q0.921875 0 1.65625 -0.890625l0 -1.6875zm2.924347 5.328125l0.671875 -0.984375q1.078125 0.71875 1.984375 0.71875q0.84375 0 1.328125 -0.296875q0.484375 -0.28125 0.484375 -0.71875q0 -0.84375 -1.21875 -0.84375q-0.21875 0 -0.765625 0.109375q-0.53125 0.109375 -0.84375 0.109375q-1.484375 0 -1.484375 -1.125q0 -0.34375 0.34375 -0.625q0.359375 -0.28125 0.859375 -0.40625q-1.46875 -0.6875 -1.46875 -2.390625q0 -1.09375 0.765625 -1.8125q0.765625 -0.734375 1.875 -0.734375q1.03125 0 1.609375 0.421875l0.625 -0.75l0.8125 0.765625l-0.75 0.5625q0.46875 0.609375 0.46875 1.609375q0 1.0625 -0.65625 1.78125q-0.65625 0.703125 -1.71875 0.8125l-1.015625 0.09375q-0.1875 0.03125 -0.5 0.15625q-0.296875 0.109375 -0.296875 0.3125q0 0.265625 0.640625 0.265625q0.28125 0 0.859375 -0.09375q0.59375 -0.109375 0.890625 -0.109375q1.015625 0 1.59375 0.5q0.578125 0.484375 0.578125 1.34375q0 0.96875 -0.859375 1.5625q-0.859375 0.59375 -2.1875 0.59375q-0.671875 0 -1.421875 -0.25q-0.75 -0.234375 -1.203125 -0.578125zm2.625 -8.015625q-0.640625 0 -1.046875 0.46875q-0.40625 0.453125 -0.40625 1.09375q0 0.734375 0.390625 1.21875q0.390625 0.46875 1.0625 0.46875q0.65625 0 1.015625 -0.453125q0.375 -0.46875 0.375 -1.234375q0 -0.640625 -0.40625 -1.09375q-0.390625 -0.46875 -0.984375 -0.46875zm10.190094 2.75l-5.03125 0q0 1.21875 0.671875 1.875q0.59375 0.578125 1.53125 0.578125q1.0625 0 1.765625 -0.625l0.515625 0.890625q-0.28125 0.296875 -0.875 0.5q-0.734375 0.265625 -1.65625 0.265625q-1.3125 0 -2.234375 -0.890625q-1.015625 -0.984375 -1.015625 -2.640625q0 -1.71875 1.046875 -2.765625q0.9375 -0.921875 2.21875 -0.921875q1.5 0 2.34375 0.828125q0.8125 0.8125 0.8125 2.140625q0 0.421875 -0.09375 0.765625zm-3.0 -2.703125q-0.828125 0 -1.390625 0.53125q-0.53125 0.515625 -0.609375 1.265625l3.859375 0q0 -0.75 -0.46875 -1.25q-0.5 -0.546875 -1.390625 -0.546875z" fill-rule="nonzero"/><path fill="#ffffff" d="m190.82841 237.91542l-5.03125 0q0 1.21875 0.671875 1.875q0.59375 0.578125 1.53125 0.578125q1.0625 0 1.765625 -0.625l0.515625 0.890625q-0.28125 0.296875 -0.875 0.5q-0.734375 0.265625 -1.65625 0.265625q-1.3125 0 -2.234375 -0.890625q-1.015625 -0.984375 -1.015625 -2.640625q0 -1.71875 1.046875 -2.765625q0.9375 -0.921875 2.21875 -0.921875q1.5 0 2.34375 0.828125q0.8125 0.8125 0.8125 2.140625q0 0.421875 -0.09375 0.765625zm-3.0 -2.703125q-0.828125 0 -1.390625 0.53125q-0.53125 0.515625 -0.609375 1.265625l3.859375 0q0 -0.75 -0.46875 -1.25q-0.5 -0.546875 -1.390625 -0.546875zm8.691177 6.0625l0 -4.046875q0 -1.125 -0.34375 -1.5625q-0.328125 -0.453125 -1.125 -0.453125q-0.421875 0 -0.890625 0.265625q-0.453125 0.25 -0.703125 0.609375l0 5.1875l-1.234375 0l0 -6.96875l0.84375 0l0.390625 0.890625q0.625 -1.015625 2.0 -1.015625q2.296875 0 2.296875 2.78125l0 4.3125l-1.234375 0zm8.251068 -6.40625l-0.609375 0.875q-0.1875 -0.1875 -0.671875 -0.359375q-0.484375 -0.171875 -0.9375 -0.171875q-1.015625 0 -1.609375 0.71875q-0.59375 0.703125 -0.59375 1.921875q0 1.234375 0.609375 1.875q0.609375 0.640625 1.6875 0.640625q0.828125 0 1.671875 -0.65625l0.484375 1.046875q-0.984375 0.640625 -2.46875 0.640625q-1.421875 0 -2.359375 -0.953125q-0.921875 -0.953125 -0.921875 -2.59375q0 -1.65625 0.96875 -2.65625q0.96875 -1.015625 2.640625 -1.015625q0.546875 0 1.171875 0.234375q0.640625 0.21875 0.9375 0.453125zm0.88023376 2.90625q0 -1.609375 0.859375 -2.59375q0.875 -1.0 2.296875 -1.0q1.5 0 2.328125 0.953125q0.828125 0.953125 0.828125 2.640625q0 1.6875 -0.859375 2.65625q-0.84375 0.96875 -2.296875 0.96875q-1.484375 0 -2.328125 -0.96875q-0.828125 -0.984375 -0.828125 -2.65625zm1.296875 0q0 2.625 1.859375 2.625q0.859375 0 1.34375 -0.703125q0.5 -0.703125 0.5 -1.921875q0 -2.59375 -1.84375 -2.59375q-0.84375 0 -1.359375 0.6875q-0.5 0.6875 -0.5 1.90625zm10.730286 3.5l0 -0.515625q-0.640625 0.640625 -1.875 0.640625q-1.3125 0 -2.125 -0.9375q-0.8125 -0.9375 -0.8125 -2.5q0 -1.5625 0.9375 -2.671875q0.9375 -1.109375 2.234375 -1.109375q1.078125 0 1.640625 0.5l0 -3.234375l1.234375 0l0 9.828125l-1.234375 0zm0 -5.359375q-0.46875 -0.703125 -1.28125 -0.703125q-1.0 0 -1.609375 0.75q-0.609375 0.734375 -0.609375 1.890625q0 2.515625 2.28125 2.515625q0.296875 0 0.703125 -0.1875q0.40625 -0.1875 0.515625 -0.390625l0 -3.875zm8.878616 2.0l-5.03125 0q0 1.21875 0.671875 1.875q0.59375 0.578125 1.53125 0.578125q1.0625 0 1.765625 -0.625l0.515625 0.890625q-0.28125 0.296875 -0.875 0.5q-0.734375 0.265625 -1.65625 0.265625q-1.3125 0 -2.234375 -0.890625q-1.015625 -0.984375 -1.015625 -2.640625q0 -1.71875 1.046875 -2.765625q0.9375 -0.921875 2.21875 -0.921875q1.5 0 2.34375 0.828125q0.8125 0.8125 0.8125 2.140625q0 0.421875 -0.09375 0.765625zm-3.0 -2.703125q-0.828125 0 -1.390625 0.53125q-0.53125 0.515625 -0.609375 1.265625l3.859375 0q0 -0.75 -0.46875 -1.25q-0.5 -0.546875 -1.390625 -0.546875zm8.191177 0.28125q-0.40625 -0.28125 -0.8125 -0.28125q-0.65625 0 -1.15625 0.609375q-0.484375 0.609375 -0.484375 1.453125l0 4.0l-1.25 0l0 -6.96875l1.25 0l0 1.109375q0.671875 -1.234375 2.0 -1.234375q0.34375 0 0.96875 0.109375l-0.515625 1.203125z" fill-rule="nonzero"/><path fill="#b3b3b3" d="m70.08163 272.43262l135.56937 0l9.91095 9.91098l0 49.55359l-145.48032 0z" fill-rule="evenodd"/><path stroke="#000000" stroke-width="1.0" stroke-linejoin="round" stroke-linecap="butt" d="m70.08163 272.43262l135.56937 0l9.91095 9.91098l0 49.55359l-145.48032 0z" fill-rule="evenodd"/><path fill="#000000" d="m117.021416 300.56265l0 -13.34375l1.8125 0l0 13.34375l-1.8125 0zm16.036171 0l0 -6.171875q0 -2.3125 -2.0 -2.3125q-0.625 0 -1.171875 0.390625q-0.546875 0.390625 -0.75 0.875l0 7.21875l-1.7343826 0l0 -6.9375q0 -0.71875 -0.546875 -1.125q-0.53125 -0.421875 -1.421875 -0.421875q-0.53125 0 -1.125 0.40625q-0.578125 0.40625 -0.828125 0.875l0 7.203125l-1.71875 0l0 -9.75l1.125 0l0.578125 1.125q1.0 -1.3125 2.5 -1.3125q2.0937576 0 2.9375076 1.296875q0.28125 -0.546875 1.078125 -0.921875q0.796875 -0.375 1.640625 -0.375q1.5 0 2.328125 0.90625q0.82810974 0.890625 0.82810974 2.515625l0 6.515625l-1.7187347 0zm9.689255 -1.125q-1.03125 1.3125 -3.171875 1.3125q-1.15625 0 -2.0 -0.828125q-0.828125 -0.84375 -0.828125 -2.078125q0 -1.484375 1.296875 -2.515625q1.296875 -1.03125 3.3125 -1.03125q0.546875 0 1.234375 0.25q0 -2.375 -2.109375 -2.375q-1.625 0 -2.5 0.875l-0.734375 -1.453125q0.5 -0.390625 1.359375 -0.671875q0.875 -0.296875 1.671875 -0.296875q2.125 0 3.078125 0.96875q0.96875 0.96875 0.96875 3.0625l0 3.5q0 1.28125 0.765625 1.71875l0 0.859375q-1.0625 0 -1.59375 -0.296875q-0.515625 -0.296875 -0.75 -1.0zm-0.15625 -3.671875q-0.828125 -0.171875 -1.15625 -0.171875q-1.296875 0 -2.140625 0.671875q-0.828125 0.671875 -0.828125 1.59375q0 1.515625 1.796875 1.515625q1.3125 0 2.328125 -1.25l0 -2.359375zm4.098694 7.46875l0.9375 -1.390625q1.515625 1.015625 2.78125 1.015625q1.1875 0 1.859375 -0.40625q0.671875 -0.40625 0.671875 -1.0q0 -1.1875 -1.703125 -1.1875q-0.296875 0 -1.0625 0.140625q-0.765625 0.140625 -1.1875 0.140625q-2.078125 0 -2.078125 -1.5625q0 -0.484375 0.484375 -0.875q0.484375 -0.390625 1.203125 -0.5625q-2.046875 -0.96875 -2.046875 -3.359375q0 -1.515625 1.0625 -2.53125q1.0625 -1.03125 2.625 -1.03125q1.4375 0 2.25 0.59375l0.875 -1.046875l1.125 1.078125l-1.03125 0.78125q0.65625 0.859375 0.65625 2.25q0 1.484375 -0.921875 2.484375q-0.921875 1.0 -2.40625 1.140625l-1.4375 0.15625q-0.25 0.015625 -0.6875 0.1875q-0.421875 0.171875 -0.421875 0.4375q0 0.375 0.890625 0.375q0.390625 0 1.21875 -0.140625q0.828125 -0.140625 1.234375 -0.140625q1.4375 0 2.234375 0.6875q0.8125 0.6875 0.8125 1.90625q0 1.359375 -1.203125 2.1875q-1.203125 0.828125 -3.046875 0.828125q-0.953125 0 -2.0 -0.34375q-1.046875 -0.328125 -1.6875 -0.8125zm3.671875 -11.21875q-0.90625 0 -1.484375 0.640625q-0.5625 0.640625 -0.5625 1.546875q0 1.015625 0.546875 1.6875q0.5625 0.671875 1.5 0.671875q0.921875 0 1.4375 -0.640625q0.515625 -0.65625 0.515625 -1.71875q0 -0.90625 -0.5625 -1.546875q-0.546875 -0.640625 -1.390625 -0.640625zm14.270813 3.84375l-7.046875 0q0 1.703125 0.953125 2.625q0.828125 0.796875 2.125 0.796875q1.484375 0 2.484375 -0.859375l0.71875 1.25q-0.390625 0.40625 -1.234375 0.6875q-1.03125 0.390625 -2.3125 0.390625q-1.828125 0 -3.125 -1.25q-1.421875 -1.375 -1.421875 -3.703125q0 -2.40625 1.46875 -3.875q1.3125 -1.296875 3.109375 -1.296875q2.078125 0 3.265625 1.171875q1.140625 1.125 1.140625 3.0q0 0.578125 -0.125 1.0625zm-4.203125 -3.78125q-1.15625 0 -1.9375 0.75q-0.75 0.71875 -0.859375 1.765625l5.40625 0q0 -1.046875 -0.65625 -1.75q-0.71875 -0.765625 -1.953125 -0.765625z" fill-rule="nonzero"/><path fill="#000000" d="m117.821945 322.56265l0 -6.171875q0 -2.3125 -2.0 -2.3125q-0.625 0 -1.171875 0.390625q-0.546875 0.390625 -0.75 0.875l0 7.21875l-1.734375 0l0 -6.9375q0 -0.71875 -0.546875 -1.125q-0.53125 -0.421875 -1.421875 -0.421875q-0.53125 0 -1.125 0.40625q-0.578125 0.40625 -0.828125 0.875l0 7.203125l-1.71875 0l0 -9.75l1.125 0l0.578125 1.125q1.0 -1.3125 2.5 -1.3125q2.09375 0 2.9375 1.296875q0.28125 -0.546875 1.078125 -0.921875q0.796875 -0.375 1.640625 -0.375q1.5 0 2.328125 0.90625q0.828125 0.890625 0.828125 2.515625l0 6.515625l-1.71875 0zm12.40802 -4.703125l-7.046875 0q0 1.703125 0.953125 2.625q0.828125 0.796875 2.125 0.796875q1.484375 0 2.484375 -0.859375l0.71875 1.25q-0.390625 0.40625 -1.234375 0.6875q-1.03125 0.390625 -2.3125 0.390625q-1.828125 0 -3.125 -1.25q-1.421875 -1.375 -1.421875 -3.703125q0 -2.40625 1.46875 -3.875q1.3125 -1.296875 3.109375 -1.296875q2.078125 0 3.265625 1.171875q1.140625 1.125 1.140625 3.0q0 0.578125 -0.125 1.0625zm-4.203125 -3.78125q-1.15625 0 -1.9375 0.75q-0.75 0.71875 -0.859375 1.765625l5.40625 0q0 -1.046875 -0.65625 -1.75q-0.71875 -0.765625 -1.953125 -0.765625zm5.519058 7.90625l0.609375 -1.640625q1.453125 0.9375 2.328125 0.9375q1.609375 0 1.609375 -1.34375q0 -0.96875 -1.546875 -1.65625q-1.203125 -0.546875 -1.625 -0.828125q-0.40625 -0.28125 -0.71875 -0.640625q-0.296875 -0.359375 -0.453125 -0.765625q-0.140625 -0.40625 -0.140625 -0.875q0 -1.203125 0.875 -1.875q0.875 -0.671875 2.28125 -0.671875q1.0625 0 2.6875 0.671875l-0.484375 1.609375q-1.03125 -0.828125 -2.078125 -0.828125q-0.609375 0 -1.03125 0.296875q-0.421875 0.296875 -0.421875 0.734375q0 0.9375 1.0625 1.421875l1.234375 0.5625q1.140625 0.515625 1.65625 1.1875q0.515625 0.671875 0.515625 1.671875q0 1.3125 -0.921875 2.0625q-0.90625 0.734375 -2.546875 0.734375q-1.53125 0 -2.890625 -0.765625zm7.551773 0l0.609375 -1.640625q1.453125 0.9375 2.328125 0.9375q1.609375 0 1.609375 -1.34375q0 -0.96875 -1.546875 -1.65625q-1.203125 -0.546875 -1.625 -0.828125q-0.40625 -0.28125 -0.71875 -0.640625q-0.296875 -0.359375 -0.453125 -0.765625q-0.140625 -0.40625 -0.140625 -0.875q0 -1.203125 0.875 -1.875q0.875 -0.671875 2.28125 -0.671875q1.0625 0 2.6875 0.671875l-0.484375 1.609375q-1.03125 -0.828125 -2.078125 -0.828125q-0.609375 0 -1.03125 0.296875q-0.421875 0.296875 -0.421875 0.734375q0 0.9375 1.0625 1.421875l1.234375 0.5625q1.140625 0.515625 1.65625 1.1875q0.515625 0.671875 0.515625 1.671875q0 1.3125 -0.921875 2.0625q-0.90625 0.734375 -2.546875 0.734375q-1.53125 0 -2.890625 -0.765625zm13.692398 -0.546875q-1.03125 1.3125 -3.171875 1.3125q-1.15625 0 -2.0 -0.828125q-0.828125 -0.84375 -0.828125 -2.078125q0 -1.484375 1.296875 -2.515625q1.296875 -1.03125 3.3125 -1.03125q0.546875 0 1.234375 0.25q0 -2.375 -2.109375 -2.375q-1.625 0 -2.5 0.875l-0.734375 -1.453125q0.5 -0.390625 1.359375 -0.671875q0.875 -0.296875 1.671875 -0.296875q2.125 0 3.078125 0.96875q0.96875 0.96875 0.96875 3.0625l0 3.5q0 1.28125 0.765625 1.71875l0 0.859375q-1.0625 0 -1.59375 -0.296875q-0.515625 -0.296875 -0.75 -1.0zm-0.15625 -3.671875q-0.828125 -0.171875 -1.15625 -0.171875q-1.296875 0 -2.140625 0.671875q-0.828125 0.671875 -0.828125 1.59375q0 1.515625 1.796875 1.515625q1.3125 0 2.328125 -1.25l0 -2.359375zm4.098694 7.46875l0.9375 -1.390625q1.515625 1.015625 2.78125 1.015625q1.1875 0 1.859375 -0.40625q0.671875 -0.40625 0.671875 -1.0q0 -1.1875 -1.703125 -1.1875q-0.296875 0 -1.0625 0.140625q-0.765625 0.140625 -1.1875 0.140625q-2.078125 0 -2.078125 -1.5625q0 -0.484375 0.484375 -0.875q0.484375 -0.390625 1.203125 -0.5625q-2.046875 -0.96875 -2.046875 -3.359375q0 -1.515625 1.0625 -2.53125q1.0625 -1.03125 2.625 -1.03125q1.4375 0 2.25 0.59375l0.875 -1.046875l1.125 1.078125l-1.03125 0.78125q0.65625 0.859375 0.65625 2.25q0 1.484375 -0.921875 2.484375q-0.921875 1.0 -2.40625 1.140625l-1.4375 0.15625q-0.25 0.015625 -0.6875 0.1875q-0.421875 0.171875 -0.421875 0.4375q0 0.375 0.890625 0.375q0.390625 0 1.21875 -0.140625q0.828125 -0.140625 1.234375 -0.140625q1.4375 0 2.234375 0.6875q0.8125 0.6875 0.8125 1.90625q0 1.359375 -1.203125 2.1875q-1.203125 0.828125 -3.046875 0.828125q-0.953125 0 -2.0 -0.34375q-1.046875 -0.328125 -1.6875 -0.8125zm3.671875 -11.21875q-0.90625 0 -1.484375 0.640625q-0.5625 0.640625 -0.5625 1.546875q0 1.015625 0.546875 1.6875q0.5625 0.671875 1.5 0.671875q0.921875 0 1.4375 -0.640625q0.515625 -0.65625 0.515625 -1.71875q0 -0.90625 -0.5625 -1.546875q-0.546875 -0.640625 -1.390625 -0.640625zm14.270813 3.84375l-7.046875 0q0 1.703125 0.953125 2.625q0.828125 0.796875 2.125 0.796875q1.484375 0 2.484375 -0.859375l0.71875 1.25q-0.390625 0.40625 -1.234375 0.6875q-1.03125 0.390625 -2.3125 0.390625q-1.828125 0 -3.125 -1.25q-1.421875 -1.375 -1.421875 -3.703125q0 -2.40625 1.46875 -3.875q1.3125 -1.296875 3.109375 -1.296875q2.078125 0 3.265625 1.171875q1.140625 1.125 1.140625 3.0q0 0.578125 -0.125 1.0625zm-4.203125 -3.78125q-1.15625 0 -1.9375 0.75q-0.75 0.71875 -0.859375 1.765625l5.40625 0q0 -1.046875 -0.65625 -1.75q-0.71875 -0.765625 -1.953125 -0.765625z" fill-rule="nonzero"/><path fill="#b3b3b3" d="m758.54956 272.43262l135.56934 0l9.91095 9.91098l0 49.55359l-145.48029 0z" fill-rule="evenodd"/><path stroke="#000000" stroke-width="1.0" stroke-linejoin="round" stroke-linecap="butt" d="m758.54956 272.43262l135.56934 0l9.91095 9.91098l0 49.55359l-145.48029 0z" fill-rule="evenodd"/><path fill="#000000" d="m784.1186 302.16266l-1.734375 0l0 -8.578125q1.65625 -0.0625 2.125 -0.0625q1.796875 0 2.84375 1.09375q1.046875 1.09375 1.046875 2.90625q0 4.640625 -4.28125 4.640625zm-0.5625 -7.53125l0 6.421875q0.390625 0.046875 0.984375 0.046875q1.21875 0 1.921875 -0.921875q0.703125 -0.921875 0.703125 -2.5625q0 -3.046875 -2.734375 -3.046875q-0.15625 0 -0.875 0.0625zm11.390625 4.5l-4.53125 0q0 1.109375 0.609375 1.6875q0.53125 0.515625 1.375 0.515625q0.953125 0 1.59375 -0.546875l0.46875 0.796875q-0.265625 0.265625 -0.796875 0.453125q-0.671875 0.25 -1.484375 0.25q-1.1875 0 -2.015625 -0.8125q-0.921875 -0.890625 -0.921875 -2.375q0 -1.5625 0.953125 -2.5q0.84375 -0.828125 2.0 -0.828125q1.34375 0 2.09375 0.75q0.75 0.734375 0.75 1.9375q0 0.359375 -0.09375 0.671875zm-2.703125 -2.421875q-0.75 0 -1.25 0.484375q-0.484375 0.453125 -0.546875 1.125l3.484375 0q0 -0.671875 -0.421875 -1.125q-0.46875 -0.484375 -1.265625 -0.484375zm4.357422 0.0625l-0.71875 0l0 -0.890625l0.71875 0l0 -1.3125l1.109375 -0.421875l0 1.734375l1.734375 0l0 0.890625l-1.734375 0l0 3.109375q0 0.796875 0.265625 1.125q0.28125 0.328125 0.859375 0.328125q0.4375 0 0.890625 -0.203125l0.171875 0.96875q-0.703125 0.1875 -1.53125 0.1875q-0.734375 0 -1.25 -0.546875q-0.515625 -0.5625 -0.515625 -1.40625l0 -3.5625zm9.6484375 2.359375l-4.53125 0q0 1.109375 0.609375 1.6875q0.53125 0.515625 1.375 0.515625q0.953125 0 1.59375 -0.546875l0.46875 0.796875q-0.265625 0.265625 -0.796875 0.453125q-0.671875 0.25 -1.484375 0.25q-1.1875 0 -2.015625 -0.8125q-0.921875 -0.890625 -0.921875 -2.375q0 -1.5625 0.953125 -2.5q0.84375 -0.828125 2.0 -0.828125q1.34375 0 2.09375 0.75q0.75 0.734375 0.75 1.9375q0 0.359375 -0.09375 0.671875zm-2.703125 -2.421875q-0.75 0 -1.25 0.484375q-0.484375 0.453125 -0.546875 1.125l3.484375 0q0 -0.671875 -0.421875 -1.125q-0.46875 -0.484375 -1.265625 -0.484375zm8.701172 -0.3125l-0.5625 0.78125q-0.15625 -0.171875 -0.59375 -0.3125q-0.4375 -0.15625 -0.84375 -0.15625q-0.90625 0 -1.453125 0.640625q-0.53125 0.625 -0.53125 1.734375q0 1.109375 0.546875 1.6875q0.546875 0.5625 1.515625 0.5625q0.75 0 1.515625 -0.578125l0.4375 0.9375q-0.890625 0.59375 -2.21875 0.59375q-1.28125 0 -2.125 -0.859375q-0.84375 -0.875 -0.84375 -2.34375q0 -1.5 0.875 -2.40625q0.875 -0.90625 2.390625 -0.90625q0.484375 0 1.046875 0.203125q0.5625 0.203125 0.84375 0.421875zm1.5976562 0.375l-0.71875 0l0 -0.890625l0.71875 0l0 -1.3125l1.109375 -0.421875l0 1.734375l1.734375 0l0 0.890625l-1.734375 0l0 3.109375q0 0.796875 0.265625 1.125q0.28125 0.328125 0.859375 0.328125q0.4375 0 0.890625 -0.203125l0.171875 0.96875q-0.703125 0.1875 -1.53125 0.1875q-0.734375 0 -1.25 -0.546875q-0.515625 -0.5625 -0.515625 -1.40625l0 -3.5625zm5.5078125 -3.265625q0.296875 0 0.484375 0.203125q0.203125 0.203125 0.203125 0.484375q0 0.296875 -0.203125 0.5q-0.1875 0.203125 -0.484375 0.203125q-0.28125 0 -0.484375 -0.203125q-0.203125 -0.203125 -0.203125 -0.5q0 -0.28125 0.203125 -0.484375q0.203125 -0.203125 0.484375 -0.203125zm-0.609375 8.65625l0 -5.34375l-0.859375 0l0 -0.9375l1.96875 0l0 6.28125l-1.109375 0zm2.46875 -3.15625q0 -1.453125 0.78125 -2.34375q0.796875 -0.890625 2.0625 -0.890625q1.359375 0 2.09375 0.859375q0.75 0.859375 0.75 2.375q0 1.515625 -0.765625 2.40625q-0.765625 0.875 -2.078125 0.875q-1.34375 0 -2.09375 -0.890625q-0.75 -0.890625 -0.75 -2.390625zm1.171875 0q0 2.359375 1.671875 2.359375q0.78125 0 1.21875 -0.625q0.453125 -0.640625 0.453125 -1.734375q0 -2.328125 -1.671875 -2.328125q-0.75 0 -1.21875 0.625q-0.453125 0.609375 -0.453125 1.703125zm9.548828 3.15625l0 -3.65625q0 -1.0 -0.3125 -1.390625q-0.296875 -0.40625 -1.0 -0.40625q-0.390625 0 -0.8125 0.234375q-0.40625 0.21875 -0.625 0.546875l0 4.671875l-1.109375 0l0 -6.28125l0.75 0l0.359375 0.8125q0.546875 -0.921875 1.796875 -0.921875q2.0625 0 2.0625 2.5l0 3.890625l-1.109375 0zm2.3066406 0l0 -0.234375l2.6875 -4.125q0.84375 -1.296875 0.84375 -2.1875q0 -1.1875 -1.34375 -1.1875q-0.46875 0 -0.890625 0.25q-0.40625 0.234375 -0.59375 0.625l-0.765625 -0.625q0.203125 -0.578125 0.78125 -0.90625q0.59375 -0.34375 1.40625 -0.34375q1.25 0 1.9375 0.578125q0.703125 0.5625 0.703125 1.609375q0 0.96875 -0.921875 2.4375l-1.9375 3.046875l3.359375 0l0 1.0625l-5.265625 0zm8.496094 0l-1.734375 0l0 -8.578125q1.65625 -0.0625 2.125 -0.0625q1.796875 0 2.84375 1.09375q1.046875 1.09375 1.046875 2.90625q0 4.640625 -4.28125 4.640625zm-0.5625 -7.53125l0 6.421875q0.390625 0.046875 0.984375 0.046875q1.21875 0 1.921875 -0.921875q0.703125 -0.921875 0.703125 -2.5625q0 -3.046875 -2.734375 -3.046875q-0.15625 0 -0.875 0.0625zm11.0625 7.53125l-0.59375 -1.8125l-3.1875 0l-0.625 1.8125l-1.3125 0l3.484375 -8.703125l0.3125 0l3.234375 8.703125l-1.3125 0zm-2.140625 -6.453125l-1.328125 3.78125l2.546875 0l-1.21875 -3.78125zm7.671875 1.25q-0.359375 -0.25 -0.734375 -0.25q-0.59375 0 -1.03125 0.546875q-0.4375 0.546875 -0.4375 1.3125l0 3.59375l-1.125 0l0 -6.28125l1.125 0l0 1.0q0.609375 -1.109375 1.796875 -1.109375q0.3125 0 0.875 0.109375l-0.46875 1.078125zm4.6640625 0q-0.359375 -0.25 -0.734375 -0.25q-0.59375 0 -1.03125 0.546875q-0.4375 0.546875 -0.4375 1.3125l0 3.59375l-1.125 0l0 -6.28125l1.125 0l0 1.0q0.609375 -1.109375 1.796875 -1.109375q0.3125 0 0.875 0.109375l-0.46875 1.078125zm4.8046875 4.484375q-0.671875 0.84375 -2.046875 0.84375q-0.75 0 -1.296875 -0.53125q-0.53125 -0.546875 -0.53125 -1.34375q0 -0.953125 0.828125 -1.609375q0.84375 -0.671875 2.140625 -0.671875q0.34375 0 0.796875 0.15625q0 -1.515625 -1.359375 -1.515625q-1.046875 0 -1.609375 0.5625l-0.46875 -0.9375q0.3125 -0.265625 0.875 -0.4375q0.5625 -0.1875 1.078125 -0.1875q1.359375 0 1.96875 0.625q0.625 0.609375 0.625 1.96875l0 2.25q0 0.828125 0.5 1.09375l0 0.5625q-0.6875 0 -1.03125 -0.1875q-0.328125 -0.203125 -0.46875 -0.640625zm-0.109375 -2.359375q-0.53125 -0.125 -0.734375 -0.125q-0.84375 0 -1.390625 0.4375q-0.53125 0.4375 -0.53125 1.03125q0 0.96875 1.15625 0.96875q0.84375 0 1.5 -0.796875l0 -1.515625zm5.2578125 4.140625q-0.21875 0.609375 -0.921875 1.0q-0.6875 0.40625 -1.53125 0.40625l0 -1.0q0.6875 0 1.1875 -0.328125q0.5 -0.328125 0.5 -0.796875q0 -0.515625 -0.1875 -1.015625q-0.171875 -0.5 -0.46875 -1.234375l-1.6875 -4.375l1.125 0l1.84375 4.859375l1.671875 -4.859375l1.125 0l-2.65625 7.34375z" fill-rule="nonzero"/><path fill="#000000" d="m814.33246 316.16266l-1.015625 -5.515625l-1.875 5.640625l-0.296875 0l-1.921875 -5.640625l-1.0 5.515625l-1.109375 0l1.59375 -8.578125l0.53125 0l2.046875 6.25l1.890625 -6.25l0.53125 0l1.734375 8.578125l-1.109375 0zm7.248047 -3.03125l-4.53125 0q0 1.109375 0.609375 1.6875q0.53125 0.515625 1.375 0.515625q0.953125 0 1.59375 -0.546875l0.46875 0.796875q-0.265625 0.265625 -0.796875 0.453125q-0.671875 0.25 -1.484375 0.25q-1.1875 0 -2.015625 -0.8125q-0.921875 -0.890625 -0.921875 -2.375q0 -1.5625 0.953125 -2.5q0.84375 -0.828125 2.0 -0.828125q1.34375 0 2.09375 0.75q0.75 0.734375 0.75 1.9375q0 0.359375 -0.09375 0.671875zm-2.703125 -2.421875q-0.75 0 -1.25 0.484375q-0.484375 0.453125 -0.546875 1.125l3.484375 0q0 -0.671875 -0.421875 -1.125q-0.46875 -0.484375 -1.265625 -0.484375zm3.5449219 5.078125l0.40625 -1.0625q0.921875 0.609375 1.5 0.609375q1.03125 0 1.03125 -0.859375q0 -0.625 -1.0 -1.0625q-0.765625 -0.359375 -1.03125 -0.53125q-0.265625 -0.1875 -0.46875 -0.421875q-0.203125 -0.234375 -0.296875 -0.484375q-0.09375 -0.265625 -0.09375 -0.5625q0 -0.78125 0.5625 -1.203125q0.5625 -0.4375 1.46875 -0.4375q0.6875 0 1.734375 0.4375l-0.3125 1.03125q-0.671875 -0.53125 -1.34375 -0.53125q-0.390625 0 -0.671875 0.1875q-0.265625 0.1875 -0.265625 0.46875q0 0.609375 0.6875 0.921875l0.796875 0.359375q0.734375 0.328125 1.0625 0.765625q0.34375 0.421875 0.34375 1.0625q0 0.84375 -0.59375 1.328125q-0.59375 0.484375 -1.640625 0.484375q-1.0 0 -1.875 -0.5zm4.857422 0l0.40625 -1.0625q0.921875 0.609375 1.5 0.609375q1.03125 0 1.03125 -0.859375q0 -0.625 -1.0 -1.0625q-0.765625 -0.359375 -1.03125 -0.53125q-0.265625 -0.1875 -0.46875 -0.421875q-0.203125 -0.234375 -0.296875 -0.484375q-0.09375 -0.265625 -0.09375 -0.5625q0 -0.78125 0.5625 -1.203125q0.5625 -0.4375 1.46875 -0.4375q0.6875 0 1.734375 0.4375l-0.3125 1.03125q-0.671875 -0.53125 -1.34375 -0.53125q-0.390625 0 -0.671875 0.1875q-0.265625 0.1875 -0.265625 0.46875q0 0.609375 0.6875 0.921875l0.796875 0.359375q0.734375 0.328125 1.0625 0.765625q0.34375 0.421875 0.34375 1.0625q0 0.84375 -0.59375 1.328125q-0.59375 0.484375 -1.640625 0.484375q-1.0 0 -1.875 -0.5zm8.826172 -0.34375q-0.671875 0.84375 -2.046875 0.84375q-0.75 0 -1.296875 -0.53125q-0.53125 -0.546875 -0.53125 -1.34375q0 -0.953125 0.828125 -1.609375q0.84375 -0.671875 2.140625 -0.671875q0.34375 0 0.796875 0.15625q0 -1.515625 -1.359375 -1.515625q-1.046875 0 -1.609375 0.5625l-0.46875 -0.9375q0.3125 -0.265625 0.875 -0.4375q0.5625 -0.1875 1.078125 -0.1875q1.359375 0 1.96875 0.625q0.625 0.609375 0.625 1.96875l0 2.25q0 0.828125 0.5 1.09375l0 0.5625q-0.6875 0 -1.03125 -0.1875q-0.328125 -0.203125 -0.46875 -0.640625zm-0.109375 -2.359375q-0.53125 -0.125 -0.734375 -0.125q-0.84375 0 -1.390625 0.4375q-0.53125 0.4375 -0.53125 1.03125q0 0.96875 1.15625 0.96875q0.84375 0 1.5 -0.796875l0 -1.515625zm2.6328125 4.796875l0.609375 -0.890625q0.96875 0.65625 1.78125 0.65625q0.765625 0 1.203125 -0.265625q0.4375 -0.265625 0.4375 -0.65625q0 -0.75 -1.109375 -0.75q-0.1875 0 -0.6875 0.09375q-0.484375 0.09375 -0.75 0.09375q-1.34375 0 -1.34375 -1.015625q0 -0.3125 0.3125 -0.5625q0.3125 -0.25 0.78125 -0.359375q-1.328125 -0.625 -1.328125 -2.15625q0 -0.984375 0.6875 -1.640625q0.6875 -0.65625 1.6875 -0.65625q0.9375 0 1.453125 0.375l0.5625 -0.671875l0.71875 0.6875l-0.671875 0.515625q0.4375 0.546875 0.4375 1.453125q0 0.9375 -0.59375 1.59375q-0.59375 0.640625 -1.5625 0.734375l-0.90625 0.09375q-0.171875 0.015625 -0.453125 0.125q-0.265625 0.109375 -0.265625 0.28125q0 0.234375 0.578125 0.234375q0.25 0 0.78125 -0.078125q0.53125 -0.09375 0.78125 -0.09375q0.9375 0 1.453125 0.4375q0.515625 0.4375 0.515625 1.234375q0 0.859375 -0.78125 1.390625q-0.765625 0.546875 -1.953125 0.546875q-0.609375 0 -1.296875 -0.21875q-0.671875 -0.21875 -1.078125 -0.53125zm2.359375 -7.21875q-0.578125 0 -0.953125 0.421875q-0.359375 0.40625 -0.359375 0.984375q0 0.65625 0.359375 1.09375q0.359375 0.421875 0.953125 0.421875q0.59375 0 0.921875 -0.40625q0.34375 -0.421875 0.34375 -1.109375q0 -0.578125 -0.359375 -0.984375q-0.359375 -0.421875 -0.90625 -0.421875zm9.1796875 2.46875l-4.53125 0q0 1.109375 0.609375 1.6875q0.53125 0.515625 1.375 0.515625q0.953125 0 1.59375 -0.546875l0.46875 0.796875q-0.265625 0.265625 -0.796875 0.453125q-0.671875 0.25 -1.484375 0.25q-1.1875 0 -2.015625 -0.8125q-0.921875 -0.890625 -0.921875 -2.375q0 -1.5625 0.953125 -2.5q0.84375 -0.828125 2.0 -0.828125q1.34375 0 2.09375 0.75q0.75 0.734375 0.75 1.9375q0 0.359375 -0.09375 0.671875zm-2.703125 -2.421875q-0.75 0 -1.25 0.484375q-0.484375 0.453125 -0.546875 1.125l3.484375 0q0 -0.671875 -0.421875 -1.125q-0.46875 -0.484375 -1.265625 -0.484375z" fill-rule="nonzero"/><path fill="#000000" fill-opacity="0.0" d="m712.301 228.36l23.119019 0l0 73.79527l23.117188 0" fill-rule="evenodd"/><path stroke="#000000" stroke-width="1.0" stroke-linejoin="round" stroke-linecap="butt" d="m712.301 228.35999l23.119019 0l0 73.79529l17.117188 0" fill-rule="evenodd"/><path fill="#000000" stroke="#000000" stroke-width="1.0" stroke-linecap="butt" d="m752.53723 303.807l4.538086 -1.6517334l-4.538086 -1.6517334z" fill-rule="evenodd"/><path fill="#76b900" d="m387.9437 120.87899l0 0c0 3.8072815 25.60086 6.8936996 57.18112 6.8936996c31.58023 0 57.18109 -3.0864182 57.18109 -6.8936996l0 41.362206c0 3.8072815 -25.60086 6.893692 -57.18109 6.893692c-31.580261 0 -57.18112 -3.0864105 -57.18112 -6.893692z" fill-rule="evenodd"/><path fill="#acd566" d="m387.9437 120.87899l0 0c0 -3.8072891 25.60086 -6.8937073 57.18112 -6.8937073c31.58023 0 57.18109 3.0864182 57.18109 6.8937073l0 0c0 3.8072815 -25.60086 6.8936996 -57.18109 6.8936996c-31.580261 0 -57.18112 -3.0864182 -57.18112 -6.8936996z" fill-rule="evenodd"/><path fill="#000000" fill-opacity="0.0" d="m502.3059 120.87899l0 0c0 3.8072815 -25.60086 6.8936996 -57.18109 6.8936996c-31.580261 0 -57.18112 -3.0864182 -57.18112 -6.8936996l0 0c0 -3.8072891 25.60086 -6.8937073 57.18112 -6.8937073c31.58023 0 57.18109 3.0864182 57.18109 6.8937073l0 41.362206c0 3.8072815 -25.60086 6.893692 -57.18109 6.893692c-31.580261 0 -57.18112 -3.0864105 -57.18112 -6.893692l0 -41.362206" fill-rule="evenodd"/><path stroke="#000000" stroke-width="1.0" stroke-linejoin="round" stroke-linecap="butt" d="m502.3059 120.87899l0 0c0 3.8072815 -25.60086 6.8936996 -57.18109 6.8936996c-31.580261 0 -57.18112 -3.0864182 -57.18112 -6.8936996l0 0c0 -3.8072891 25.60086 -6.8937073 57.18112 -6.8937073c31.58023 0 57.18109 3.0864182 57.18109 6.8937073l0 41.362206c0 3.8072815 -25.60086 6.893692 -57.18109 6.893692c-31.580261 0 -57.18112 -3.0864105 -57.18112 -6.893692l0 -41.362206" fill-rule="evenodd"/><path fill="#ffffff" d="m437.12677 137.68694l0 -5.046875l-1.890625 0l0 -0.6875l4.546875 0l0 0.6875l-1.90625 0l0 5.046875l-0.75 0zm3.0273438 0l0 -4.15625l0.640625 0l0 0.640625q0.234375 -0.453125 0.4375 -0.59375q0.21875 -0.140625 0.453125 -0.140625q0.359375 0 0.734375 0.234375l-0.25 0.65625q-0.25 -0.15625 -0.515625 -0.15625q-0.234375 0 -0.421875 0.140625q-0.171875 0.140625 -0.25 0.375q-0.125 0.375 -0.125 0.828125l0 2.171875l-0.703125 0zm2.6796875 -4.921875l0 -0.8125l0.703125 0l0 0.8125l-0.703125 0zm0 4.921875l0 -4.15625l0.703125 0l0 4.15625l-0.703125 0zm3.3085938 -0.625l0.109375 0.609375q-0.296875 0.078125 -0.53125 0.078125q-0.390625 0 -0.609375 -0.125q-0.203125 -0.125 -0.296875 -0.3125q-0.078125 -0.203125 -0.078125 -0.84375l0 -2.390625l-0.515625 0l0 -0.546875l0.515625 0l0 -1.015625l0.703125 -0.421875l0 1.4375l0.703125 0l0 0.546875l-0.703125 0l0 2.4375q0 0.296875 0.03125 0.390625q0.046875 0.078125 0.125 0.125q0.078125 0.046875 0.234375 0.046875q0.125 0 0.3125 -0.015625zm0.42578125 -1.453125q0 -1.15625 0.640625 -1.703125q0.53125 -0.46875 1.3125 -0.46875q0.84375 0 1.390625 0.5625q0.546875 0.5625 0.546875 1.546875q0 0.8125 -0.25 1.265625q-0.234375 0.453125 -0.703125 0.71875q-0.453125 0.25 -0.984375 0.25q-0.875 0 -1.421875 -0.5625q-0.53125 -0.5625 -0.53125 -1.609375zm0.71875 0q0 0.796875 0.34375 1.203125q0.359375 0.390625 0.890625 0.390625q0.515625 0 0.859375 -0.390625q0.359375 -0.40625 0.359375 -1.21875q0 -0.78125 -0.359375 -1.171875q-0.34375 -0.390625 -0.859375 -0.390625q-0.53125 0 -0.890625 0.390625q-0.34375 0.390625 -0.34375 1.1875zm3.9960938 2.078125l0 -4.15625l0.625 0l0 0.59375q0.46875 -0.6875 1.328125 -0.6875q0.375 0 0.6875 0.140625q0.3125 0.140625 0.46875 0.359375q0.15625 0.21875 0.21875 0.515625q0.046875 0.1875 0.046875 0.6875l0 2.546875l-0.703125 0l0 -2.53125q0 -0.421875 -0.09375 -0.625q-0.078125 -0.21875 -0.296875 -0.34375q-0.203125 -0.140625 -0.484375 -0.140625q-0.4375 0 -0.765625 0.296875q-0.328125 0.28125 -0.328125 1.078125l0 2.265625l-0.703125 0z" fill-rule="nonzero"/><path fill="#ffffff" d="m427.96466 147.68694l0 -5.734375l1.96875 0q0.671875 0 1.015625 0.09375q0.5 0.109375 0.84375 0.40625q0.453125 0.375 0.671875 0.984375q0.234375 0.59375 0.234375 1.359375q0 0.640625 -0.15625 1.15625q-0.15625 0.5 -0.390625 0.828125q-0.234375 0.328125 -0.53125 0.515625q-0.28125 0.1875 -0.6875 0.296875q-0.390625 0.09375 -0.90625 0.09375l-2.0625 0zm0.75 -0.671875l1.21875 0q0.578125 0 0.890625 -0.109375q0.328125 -0.109375 0.515625 -0.296875q0.265625 -0.265625 0.421875 -0.71875q0.15625 -0.46875 0.15625 -1.109375q0 -0.90625 -0.296875 -1.375q-0.296875 -0.484375 -0.71875 -0.65625q-0.3125 -0.109375 -0.984375 -0.109375l-1.203125 0l0 4.375zm7.7773438 -0.671875l0.71875 0.09375q-0.171875 0.640625 -0.640625 1.0q-0.453125 0.34375 -1.1875 0.34375q-0.90625 0 -1.4375 -0.5625q-0.53125 -0.5625 -0.53125 -1.578125q0 -1.046875 0.53125 -1.625q0.546875 -0.578125 1.40625 -0.578125q0.828125 0 1.359375 0.578125q0.53125 0.5625 0.53125 1.59375q0 0.0625 -0.015625 0.1875l-3.09375 0q0.046875 0.671875 0.390625 1.046875q0.34375 0.359375 0.875 0.359375q0.375 0 0.640625 -0.203125q0.28125 -0.203125 0.453125 -0.65625zm-2.3125 -1.125l2.3125 0q-0.046875 -0.53125 -0.265625 -0.796875q-0.328125 -0.40625 -0.875 -0.40625q-0.484375 0 -0.8125 0.328125q-0.328125 0.328125 -0.359375 0.875zm5.4492188 1.84375l0.109375 0.609375q-0.296875 0.078125 -0.53125 0.078125q-0.390625 0 -0.609375 -0.125q-0.203125 -0.125 -0.296875 -0.3125q-0.078125 -0.203125 -0.078125 -0.84375l0 -2.390625l-0.515625 0l0 -0.546875l0.515625 0l0 -1.015625l0.703125 -0.421875l0 1.4375l0.703125 0l0 0.546875l-0.703125 0l0 2.4375q0 0.296875 0.03125 0.390625q0.046875 0.078125 0.125 0.125q0.078125 0.046875 0.234375 0.046875q0.125 0 0.3125 -0.015625zm3.5351562 -0.71875l0.71875 0.09375q-0.171875 0.640625 -0.640625 1.0q-0.453125 0.34375 -1.1875 0.34375q-0.90625 0 -1.4375 -0.5625q-0.53125 -0.5625 -0.53125 -1.578125q0 -1.046875 0.53125 -1.625q0.546875 -0.578125 1.40625 -0.578125q0.828125 0 1.359375 0.578125q0.53125 0.5625 0.53125 1.59375q0 0.0625 -0.015625 0.1875l-3.09375 0q0.046875 0.671875 0.390625 1.046875q0.34375 0.359375 0.875 0.359375q0.375 0 0.640625 -0.203125q0.28125 -0.203125 0.453125 -0.65625zm-2.3125 -1.125l2.3125 0q-0.046875 -0.53125 -0.265625 -0.796875q-0.328125 -0.40625 -0.875 -0.40625q-0.484375 0 -0.8125 0.328125q-0.328125 0.328125 -0.359375 0.875zm6.6210938 0.953125l0.6875 0.078125q-0.109375 0.71875 -0.578125 1.125q-0.46875 0.40625 -1.140625 0.40625q-0.859375 0 -1.375 -0.546875q-0.515625 -0.5625 -0.515625 -1.609375q0 -0.671875 0.21875 -1.171875q0.234375 -0.5 0.6875 -0.75q0.453125 -0.265625 0.984375 -0.265625q0.671875 0 1.09375 0.34375q0.4375 0.34375 0.5625 0.96875l-0.6875 0.109375q-0.09375 -0.421875 -0.34375 -0.625q-0.25 -0.21875 -0.59375 -0.21875q-0.53125 0 -0.875 0.390625q-0.328125 0.375 -0.328125 1.203125q0 0.828125 0.3125 1.21875q0.328125 0.375 0.84375 0.375q0.421875 0 0.6875 -0.25q0.28125 -0.265625 0.359375 -0.78125zm2.828125 0.890625l0.109375 0.609375q-0.296875 0.078125 -0.53125 0.078125q-0.390625 0 -0.609375 -0.125q-0.203125 -0.125 -0.296875 -0.3125q-0.078125 -0.203125 -0.078125 -0.84375l0 -2.390625l-0.515625 0l0 -0.546875l0.515625 0l0 -1.015625l0.703125 -0.421875l0 1.4375l0.703125 0l0 0.546875l-0.703125 0l0 2.4375q0 0.296875 0.03125 0.390625q0.046875 0.078125 0.125 0.125q0.078125 0.046875 0.234375 0.046875q0.125 0 0.3125 -0.015625zm0.76953125 0.625l0 -5.734375l0.78125 0l3.0 4.5l0 -4.5l0.734375 0l0 5.734375l-0.78125 0l-3.0 -4.5l0 4.5l-0.734375 0zm8.542969 -1.34375l0.71875 0.09375q-0.171875 0.640625 -0.640625 1.0q-0.453125 0.34375 -1.1875 0.34375q-0.90625 0 -1.4375 -0.5625q-0.53125 -0.5625 -0.53125 -1.578125q0 -1.046875 0.53125 -1.625q0.546875 -0.578125 1.40625 -0.578125q0.828125 0 1.359375 0.578125q0.53125 0.5625 0.53125 1.59375q0 0.0625 -0.015625 0.1875l-3.09375 0q0.046875 0.671875 0.390625 1.046875q0.34375 0.359375 0.875 0.359375q0.375 0 0.640625 -0.203125q0.28125 -0.203125 0.453125 -0.65625zm-2.3125 -1.125l2.3125 0q-0.046875 -0.53125 -0.265625 -0.796875q-0.328125 -0.40625 -0.875 -0.40625q-0.484375 0 -0.8125 0.328125q-0.328125 0.328125 -0.359375 0.875zm5.4492188 1.84375l0.109375 0.609375q-0.296875 0.078125 -0.53125 0.078125q-0.390625 0 -0.609375 -0.125q-0.203125 -0.125 -0.296875 -0.3125q-0.078125 -0.203125 -0.078125 -0.84375l0 -2.390625l-0.515625 0l0 -0.546875l0.515625 0l0 -1.015625l0.703125 -0.421875l0 1.4375l0.703125 0l0 0.546875l-0.703125 0l0 2.4375q0 0.296875 0.03125 0.390625q0.046875 0.078125 0.125 0.125q0.078125 0.046875 0.234375 0.046875q0.125 0 0.3125 -0.015625z" fill-rule="nonzero"/><path fill="#ffffff" d="m430.89825 157.68694l0 -5.046875l-1.890625 0l0 -0.6875l4.546875 0l0 0.6875l-1.90625 0l0 5.046875l-0.75 0zm3.4335938 0l0 -5.734375l2.546875 0q0.765625 0 1.15625 0.15625q0.40625 0.15625 0.640625 0.546875q0.234375 0.390625 0.234375 0.859375q0 0.609375 -0.390625 1.03125q-0.390625 0.421875 -1.21875 0.53125q0.296875 0.140625 0.453125 0.28125q0.34375 0.3125 0.640625 0.765625l0.984375 1.5625l-0.953125 0l-0.75 -1.1875q-0.328125 -0.515625 -0.546875 -0.78125q-0.21875 -0.28125 -0.390625 -0.390625q-0.171875 -0.109375 -0.34375 -0.15625q-0.125 -0.03125 -0.421875 -0.03125l-0.875 0l0 2.546875l-0.765625 0zm0.765625 -3.203125l1.625 0q0.515625 0 0.8125 -0.109375q0.296875 -0.109375 0.4375 -0.34375q0.15625 -0.234375 0.15625 -0.515625q0 -0.40625 -0.296875 -0.65625q-0.28125 -0.265625 -0.921875 -0.265625l-1.8125 0l0 1.890625zm6.3203125 3.203125l0 -5.046875l-1.890625 0l0 -0.6875l4.546875 0l0 0.6875l-1.90625 0l0 5.046875l-0.75 0zm5.4179688 1.59375l0 -5.75l0.640625 0l0 0.546875q0.21875 -0.3125 0.5 -0.46875q0.296875 -0.171875 0.703125 -0.171875q0.53125 0 0.9375 0.28125q0.40625 0.265625 0.609375 0.765625q0.203125 0.5 0.203125 1.09375q0 0.640625 -0.234375 1.15625q-0.21875 0.5 -0.65625 0.78125q-0.4375 0.265625 -0.90625 0.265625q-0.359375 0 -0.640625 -0.140625q-0.28125 -0.15625 -0.453125 -0.390625l0 2.03125l-0.703125 0zm0.640625 -3.640625q0 0.796875 0.3125 1.1875q0.328125 0.375 0.796875 0.375q0.46875 0 0.796875 -0.390625q0.328125 -0.40625 0.328125 -1.234375q0 -0.796875 -0.328125 -1.1875q-0.3125 -0.390625 -0.765625 -0.390625q-0.453125 0 -0.796875 0.421875q-0.34375 0.40625 -0.34375 1.21875zm3.7929688 2.046875l0 -5.734375l0.703125 0l0 5.734375l-0.703125 0zm4.4960938 -0.515625q-0.390625 0.328125 -0.75 0.46875q-0.359375 0.140625 -0.78125 0.140625q-0.671875 0 -1.046875 -0.328125q-0.359375 -0.34375 -0.359375 -0.859375q0 -0.3125 0.125 -0.5625q0.140625 -0.25 0.359375 -0.390625q0.234375 -0.15625 0.515625 -0.234375q0.203125 -0.0625 0.625 -0.109375q0.859375 -0.109375 1.25 -0.25q0.015625 -0.140625 0.015625 -0.171875q0 -0.4375 -0.203125 -0.609375q-0.265625 -0.234375 -0.796875 -0.234375q-0.5 0 -0.734375 0.171875q-0.234375 0.171875 -0.359375 0.609375l-0.6875 -0.09375q0.09375 -0.4375 0.3125 -0.703125q0.21875 -0.28125 0.625 -0.421875q0.40625 -0.15625 0.9375 -0.15625q0.53125 0 0.859375 0.125q0.34375 0.125 0.5 0.328125q0.15625 0.1875 0.21875 0.46875q0.03125 0.1875 0.03125 0.65625l0 0.9375q0 0.96875 0.046875 1.234375q0.046875 0.265625 0.171875 0.5l-0.734375 0q-0.109375 -0.21875 -0.140625 -0.515625zm-0.0625 -1.5625q-0.375 0.15625 -1.140625 0.265625q-0.4375 0.0625 -0.625 0.140625q-0.171875 0.078125 -0.265625 0.234375q-0.09375 0.140625 -0.09375 0.328125q0 0.28125 0.203125 0.46875q0.21875 0.1875 0.625 0.1875q0.40625 0 0.71875 -0.171875q0.328125 -0.1875 0.46875 -0.5q0.109375 -0.234375 0.109375 -0.703125l0 -0.25zm1.8085938 2.078125l0 -4.15625l0.625 0l0 0.59375q0.46875 -0.6875 1.328125 -0.6875q0.375 0 0.6875 0.140625q0.3125 0.140625 0.46875 0.359375q0.15625 0.21875 0.21875 0.515625q0.046875 0.1875 0.046875 0.6875l0 2.546875l-0.703125 0l0 -2.53125q0 -0.421875 -0.09375 -0.625q-0.078125 -0.21875 -0.296875 -0.34375q-0.203125 -0.140625 -0.484375 -0.140625q-0.4375 0 -0.765625 0.296875q-0.328125 0.28125 -0.328125 1.078125l0 2.265625l-0.703125 0z" fill-rule="nonzero"/><path fill="#5e5e5e" d="m159.92926 20.517061l104.73465 0c1.6400757 0 3.2129517 0.65151024 4.37265 1.8112068c1.1596985 1.1596966 1.8112183 2.732584 1.8112183 4.3726425l0 30.918512c0 5.378723E-4 -4.5776367E-4 9.765625E-4 -9.765625E-4 9.765625E-4l-117.101395 -9.765625E-4l0 0c-5.340576E-4 0 -9.765625E-4 -4.386902E-4 -9.765625E-4 -9.765625E-4l9.765625E-4 -30.917536l0 0c0 -3.415245 2.7686005 -6.1838493 6.183853 -6.1838493z" fill-rule="evenodd"/><path stroke="#000000" stroke-width="1.0" stroke-linejoin="round" stroke-linecap="butt" d="m159.92926 20.517061l104.73465 0c1.6400757 0 3.2129517 0.65151024 4.37265 1.8112068c1.1596985 1.1596966 1.8112183 2.732584 1.8112183 4.3726425l0 30.918512c0 5.378723E-4 -4.5776367E-4 9.765625E-4 -9.765625E-4 9.765625E-4l-117.101395 -9.765625E-4l0 0c-5.340576E-4 0 -9.765625E-4 -4.386902E-4 -9.765625E-4 -9.765625E-4l9.765625E-4 -30.917536l0 0c0 -3.415245 2.7686005 -6.1838493 6.183853 -6.1838493z" fill-rule="evenodd"/><path fill="#ffffff" d="m174.40034 45.053833l0 -4.859375q0 -1.796875 -1.578125 -1.796875q-0.484375 0 -0.921875 0.3125q-0.421875 0.296875 -0.578125 0.671875l0 5.671875l-1.359375 0l0 -5.453125q0 -0.5625 -0.4375 -0.875q-0.421875 -0.328125 -1.125 -0.328125q-0.40625 0 -0.875 0.3125q-0.453125 0.3125 -0.640625 0.6875l0 5.65625l-1.359375 0l0 -7.671875l0.890625 0l0.4375 0.890625q0.796875 -1.03125 1.96875 -1.03125q1.65625 0 2.3125 1.03125q0.234375 -0.4375 0.84375 -0.734375q0.625 -0.296875 1.28125 -0.296875q1.1875 0 1.84375 0.71875q0.65625 0.703125 0.65625 1.96875l0 5.125l-1.359375 0zm2.7908325 -3.84375q0 -1.78125 0.953125 -2.875q0.953125 -1.09375 2.515625 -1.09375q1.640625 0 2.546875 1.0625q0.921875 1.046875 0.921875 2.90625q0 1.84375 -0.9375 2.921875q-0.9375 1.0625 -2.53125 1.0625q-1.640625 0 -2.5625 -1.078125q-0.90625 -1.078125 -0.90625 -2.90625zm1.421875 0q0 2.875 2.046875 2.875q0.953125 0 1.484375 -0.765625q0.546875 -0.78125 0.546875 -2.109375q0 -2.859375 -2.03125 -2.859375q-0.9375 0 -1.5 0.765625q-0.546875 0.75 -0.546875 2.09375zm11.802353 3.84375l0 -0.578125q-0.71875 0.71875 -2.0625 0.71875q-1.4375 0 -2.34375 -1.03125q-0.890625 -1.03125 -0.890625 -2.75q0 -1.734375 1.03125 -2.953125q1.03125 -1.21875 2.453125 -1.21875q1.1875 0 1.8125 0.5625l0 -3.5625l1.359375 0l0 10.8125l-1.359375 0zm0 -5.890625q-0.515625 -0.765625 -1.40625 -0.765625q-1.09375 0 -1.78125 0.8125q-0.671875 0.8125 -0.671875 2.078125q0 2.765625 2.515625 2.765625q0.328125 0 0.765625 -0.203125q0.453125 -0.203125 0.578125 -0.4375l0 -4.25zm9.759171 2.1875l-5.53125 0q0 1.34375 0.75 2.078125q0.640625 0.625 1.671875 0.625q1.15625 0 1.9375 -0.6875l0.578125 0.984375q-0.3125 0.3125 -0.96875 0.546875q-0.8125 0.296875 -1.8125 0.296875q-1.453125 0 -2.453125 -0.984375q-1.125 -1.078125 -1.125 -2.90625q0 -1.890625 1.15625 -3.03125q1.015625 -1.03125 2.4375 -1.03125q1.640625 0 2.5625 0.921875q0.90625 0.890625 0.90625 2.359375q0 0.453125 -0.109375 0.828125zm-3.296875 -2.953125q-0.90625 0 -1.53125 0.578125q-0.578125 0.5625 -0.65625 1.390625l4.234375 0q0 -0.828125 -0.515625 -1.375q-0.5625 -0.59375 -1.53125 -0.59375zm4.9467926 4.484375l0 -8.640625l1.359375 0l0 8.421875q0 0.609375 0.34375 0.96875q0.359375 0.34375 0.9375 0.34375l0 1.21875q-2.640625 0 -2.640625 -2.3125zm5.7755737 0.15625q0.453125 0 0.765625 0.328125q0.3125 0.3125 0.3125 0.75q0 0.4375 -0.3125 0.765625q-0.3125 0.3125 -0.765625 0.3125q-0.4375 0 -0.765625 -0.3125q-0.3125 -0.328125 -0.3125 -0.765625q0 -0.4375 0.3125 -0.75q0.328125 -0.328125 0.765625 -0.328125zm5.178467 1.59375l0 3.421875l-1.359375 0l0 -10.671875l1.359375 0l0 0.640625q0.765625 -0.78125 1.859375 -0.78125q1.640625 0 2.546875 1.015625q0.90625 1.015625 0.90625 2.984375q0 1.75 -0.921875 2.859375q-0.90625 1.09375 -2.640625 1.09375q-0.484375 0 -1.046875 -0.171875q-0.546875 -0.171875 -0.703125 -0.390625zm0 -5.59375l0 4.46875q0.125 0.1875 0.53125 0.375q0.421875 0.171875 0.8125 0.171875q2.546875 0 2.546875 -2.859375q0 -1.453125 -0.609375 -2.125q-0.59375 -0.671875 -1.921875 -0.671875q-0.28125 0 -0.703125 0.203125q-0.421875 0.1875 -0.65625 0.4375zm6.9154205 3.84375l0 -8.640625l1.359375 0l0 8.421875q0 0.609375 0.34375 0.96875q0.359375 0.34375 0.9375 0.34375l0 1.21875q-2.640625 0 -2.640625 -2.3125zm8.541199 1.296875q-0.8125 1.015625 -2.5 1.015625q-0.90625 0 -1.5625 -0.65625q-0.65625 -0.65625 -0.65625 -1.625q0 -1.171875 1.015625 -1.96875q1.015625 -0.8125 2.59375 -0.8125q0.4375 0 0.984375 0.1875q0 -1.859375 -1.671875 -1.859375q-1.265625 0 -1.953125 0.6875l-0.578125 -1.140625q0.390625 -0.3125 1.078125 -0.53125q0.6875 -0.234375 1.296875 -0.234375q1.671875 0 2.421875 0.765625q0.765625 0.75 0.765625 2.40625l0 2.75q0 1.015625 0.59375 1.34375l0 0.6875q-0.828125 0 -1.25 -0.234375q-0.40625 -0.25 -0.578125 -0.78125zm-0.125 -2.890625q-0.65625 -0.140625 -0.90625 -0.140625q-1.03125 0 -1.6875 0.53125q-0.640625 0.53125 -0.640625 1.25q0 1.1875 1.40625 1.1875q1.03125 0 1.828125 -0.96875l0 -1.859375zm8.215881 3.765625l0 -4.453125q0 -1.234375 -0.375 -1.71875q-0.375 -0.484375 -1.234375 -0.484375q-0.46875 0 -0.984375 0.28125q-0.5 0.265625 -0.765625 0.671875l0 5.703125l-1.359375 0l0 -7.671875l0.921875 0l0.4375 1.0q0.671875 -1.140625 2.1875 -1.140625q2.53125 0 2.53125 3.0625l0 4.75l-1.359375 0z" fill-rule="nonzero"/><path fill="#000000" fill-opacity="0.0" d="m270.84778 39.06824l174.2677 0l0 74.92914" fill-rule="evenodd"/><path stroke="#000000" stroke-width="1.0" stroke-linejoin="round" stroke-linecap="butt" d="m270.84778 39.06824l174.2677 0l0 68.92914" fill-rule="evenodd"/><path fill="#000000" stroke="#000000" stroke-width="1.0" stroke-linecap="butt" d="m443.46375 107.997375l1.6517334 4.538101l1.6517334 -4.538101z" fill-rule="evenodd"/><path fill="#000000" fill-opacity="0.0" d="m445.12482 169.13489l0 15.835327l-0.25198364 0l0 15.818222" fill-rule="evenodd"/><path stroke="#000000" stroke-width="1.0" stroke-linejoin="round" stroke-linecap="butt" d="m445.1248 169.13489l0 15.835312l-0.25195312 0l0 9.818222" fill-rule="evenodd"/><path fill="#000000" stroke="#000000" stroke-width="1.0" stroke-linecap="butt" d="m443.2211 194.78842l1.6517334 4.538101l1.6517334 -4.538101z" fill-rule="evenodd"/><path fill="#76b900" d="m371.6415 209.97415l0 0c0 -5.0772705 4.1159363 -9.193207 9.193207 -9.193207l128.08481 0c2.438202 0 4.77652 0.9685669 6.50058 2.692627c1.72406 1.72406 2.692627 4.062378 2.692627 6.50058l0 36.771698c0 5.0772705 -4.115906 9.193207 -9.193207 9.193207l-128.08481 0l0 0c-5.0772705 0 -9.193207 -4.1159363 -9.193207 -9.193207z" fill-rule="evenodd"/><path stroke="#000000" stroke-width="1.0" stroke-linejoin="round" stroke-linecap="butt" d="m371.6415 209.97415l0 0c0 -5.0772705 4.1159363 -9.193207 9.193207 -9.193207l128.08481 0c2.438202 0 4.77652 0.9685669 6.50058 2.692627c1.72406 1.72406 2.692627 4.062378 2.692627 6.50058l0 36.771698c0 5.0772705 -4.115906 9.193207 -9.193207 9.193207l-128.08481 0l0 0c-5.0772705 0 -9.193207 -4.1159363 -9.193207 -9.193207z" fill-rule="evenodd"/><path fill="#ffffff" d="m400.7099 216.80063l0 8.359375l-1.296875 0l0 -8.359375l-3.046875 0l0 -1.171875l7.515625 0l0 1.171875l-3.171875 0zm7.956604 2.578125q-0.40625 -0.28125 -0.8125 -0.28125q-0.65625 0 -1.15625 0.609375q-0.484375 0.609375 -0.484375 1.453125l0 4.0l-1.25 0l0 -6.96875l1.25 0l0 1.109375q0.671875 -1.234375 2.0 -1.234375q0.34375 0 0.96875 0.109375l-0.515625 1.203125zm2.6646423 -3.828125q0.3125 0 0.53125 0.234375q0.234375 0.21875 0.234375 0.53125q0 0.3125 -0.234375 0.546875q-0.21875 0.21875 -0.53125 0.21875q-0.3125 0 -0.546875 -0.21875q-0.21875 -0.234375 -0.21875 -0.546875q0 -0.3125 0.21875 -0.53125q0.21875 -0.234375 0.546875 -0.234375zm-0.671875 9.609375l0 -5.921875l-0.96875 0l0 -1.046875l2.203125 0l0 6.96875l-1.234375 0zm3.6443481 -6.0l-0.8125 0l0 -0.96875l0.8125 0l0 -1.453125l1.234375 -0.484375l0 1.9375l1.90625 0l0 0.96875l-1.90625 0l0 3.46875q0 0.875 0.296875 1.25q0.296875 0.375 0.953125 0.375q0.46875 0 0.984375 -0.25l0.171875 1.09375q-0.765625 0.1875 -1.6875 0.1875q-0.828125 0 -1.390625 -0.609375q-0.5625 -0.609375 -0.5625 -1.546875l0 -3.96875zm4.3781433 2.5q0 -1.609375 0.859375 -2.59375q0.875 -1.0 2.296875 -1.0q1.5 0 2.328125 0.953125q0.828125 0.953125 0.828125 2.640625q0 1.6875 -0.859375 2.65625q-0.84375 0.96875 -2.296875 0.96875q-1.484375 0 -2.328125 -0.96875q-0.828125 -0.984375 -0.828125 -2.65625zm1.296875 0q0 2.625 1.859375 2.625q0.859375 0 1.34375 -0.703125q0.5 -0.703125 0.5 -1.921875q0 -2.59375 -1.84375 -2.59375q-0.84375 0 -1.359375 0.6875q-0.5 0.6875 -0.5 1.90625zm10.605286 3.5l0 -4.046875q0 -1.125 -0.34375 -1.5625q-0.328125 -0.453125 -1.125 -0.453125q-0.421875 0 -0.890625 0.265625q-0.453125 0.25 -0.703125 0.609375l0 5.1875l-1.234375 0l0 -6.96875l0.84375 0l0.390625 0.890625q0.625 -1.015625 2.0 -1.015625q2.296875 0 2.296875 2.78125l0 4.3125l-1.234375 0zm7.328949 0l0 -9.53125l1.2968445 0l0 9.53125l-1.2968445 0zm7.6782227 0l0 -4.046875q0 -1.125 -0.34375 -1.5625q-0.328125 -0.453125 -1.125 -0.453125q-0.421875 0 -0.890625 0.265625q-0.453125 0.25 -0.703125 0.609375l0 5.1875l-1.234375 0l0 -6.96875l0.84375 0l0.390625 0.890625q0.625 -1.015625 2.0 -1.015625q2.296875 0 2.296875 2.78125l0 4.3125l-1.234375 0zm6.751068 -8.71875q-0.375 -0.125 -0.703125 -0.125q-0.5625 0 -0.9375 0.4375q-0.359375 0.421875 -0.359375 1.078125q0 0.171875 0.03125 0.359375l1.421875 0l0 1.046875l-1.421875 0l0 5.921875l-1.234375 0l0 -5.921875l-1.015625 0l0 -1.046875l1.015625 0q0 -1.328125 0.65625 -2.09375q0.65625 -0.765625 1.734375 -0.765625q0.546875 0 1.15625 0.203125l-0.34375 0.90625zm7.0358276 5.359375l-5.03125 0q0 1.21875 0.671875 1.875q0.59375 0.578125 1.53125 0.578125q1.0625 0 1.765625 -0.625l0.515625 0.890625q-0.28125 0.296875 -0.875 0.5q-0.734375 0.265625 -1.65625 0.265625q-1.3125 0 -2.234375 -0.890625q-1.015625 -0.984375 -1.015625 -2.640625q0 -1.71875 1.046875 -2.765625q0.9375 -0.921875 2.21875 -0.921875q1.5 0 2.34375 0.828125q0.8125 0.8125 0.8125 2.140625q0 0.421875 -0.09375 0.765625zm-3.0 -2.703125q-0.828125 0 -1.390625 0.53125q-0.53125 0.515625 -0.609375 1.265625l3.859375 0q0 -0.75 -0.46875 -1.25q-0.5 -0.546875 -1.390625 -0.546875zm8.191193 0.28125q-0.40625 -0.28125 -0.8125 -0.28125q-0.65625 0 -1.15625 0.609375q-0.484375 0.609375 -0.484375 1.453125l0 4.0l-1.25 0l0 -6.96875l1.25 0l0 1.109375q0.671875 -1.234375 2.0 -1.234375q0.34375 0 0.96875 0.109375l-0.515625 1.203125zm7.2583923 2.421875l-5.03125 0q0 1.21875 0.671875 1.875q0.59375 0.578125 1.53125 0.578125q1.0625 0 1.765625 -0.625l0.515625 0.890625q-0.28125 0.296875 -0.875 0.5q-0.734375 0.265625 -1.65625 0.265625q-1.3125 0 -2.234375 -0.890625q-1.015625 -0.984375 -1.015625 -2.640625q0 -1.71875 1.046875 -2.765625q0.9375 -0.921875 2.21875 -0.921875q1.5 0 2.34375 0.828125q0.8125 0.8125 0.8125 2.140625q0 0.421875 -0.09375 0.765625zm-3.0 -2.703125q-0.828125 0 -1.390625 0.53125q-0.53125 0.515625 -0.609375 1.265625l3.859375 0q0 -0.75 -0.46875 -1.25q-0.5 -0.546875 -1.390625 -0.546875zm8.691162 6.0625l0 -4.046875q0 -1.125 -0.34375 -1.5625q-0.328125 -0.453125 -1.125 -0.453125q-0.421875 0 -0.890625 0.265625q-0.453125 0.25 -0.703125 0.609375l0 5.1875l-1.234375 0l0 -6.96875l0.84375 0l0.390625 0.890625q0.625 -1.015625 2.0 -1.015625q2.296875 0 2.296875 2.78125l0 4.3125l-1.234375 0zm8.251068 -6.40625l-0.609375 0.875q-0.1875 -0.1875 -0.671875 -0.359375q-0.484375 -0.171875 -0.9375 -0.171875q-1.015625 0 -1.609375 0.71875q-0.59375 0.703125 -0.59375 1.921875q0 1.234375 0.609375 1.875q0.609375 0.640625 1.6875 0.640625q0.828125 0 1.671875 -0.65625l0.484375 1.046875q-0.984375 0.640625 -2.46875 0.640625q-1.421875 0 -2.359375 -0.953125q-0.921875 -0.953125 -0.921875 -2.59375q0 -1.65625 0.96875 -2.65625q0.96875 -1.015625 2.640625 -1.015625q0.546875 0 1.171875 0.234375q0.640625 0.21875 0.9375 0.453125zm7.208374 3.046875l-5.03125 0q0 1.21875 0.671875 1.875q0.59375 0.578125 1.53125 0.578125q1.0625 0 1.765625 -0.625l0.515625 0.890625q-0.28125 0.296875 -0.875 0.5q-0.734375 0.265625 -1.65625 0.265625q-1.3125 0 -2.234375 -0.890625q-1.015625 -0.984375 -1.015625 -2.640625q0 -1.71875 1.046875 -2.765625q0.9375 -0.921875 2.21875 -0.921875q1.5 0 2.34375 0.828125q0.8125 0.8125 0.8125 2.140625q0 0.421875 -0.09375 0.765625zm-3.0 -2.703125q-0.828125 0 -1.390625 0.53125q-0.53125 0.515625 -0.609375 1.265625l3.859375 0q0 -0.75 -0.46875 -1.25q-0.5 -0.546875 -1.390625 -0.546875z" fill-rule="nonzero"/><path fill="#ffffff" d="m428.78784 231.9725l-0.4375 1.125q-0.625 -0.46875 -1.96875 -0.46875q-1.25 0 -2.015625 1.09375q-0.75 1.078125 -0.75 2.78125q0 1.625 0.765625 2.640625q0.78125 1.0 2.015625 1.0q1.34375 0 2.0625 -0.9375l0.71875 0.984375q-1.140625 1.125 -2.921875 1.125q-1.859375 0 -2.9375 -1.34375q-1.078125 -1.34375 -1.078125 -3.546875q0 -2.140625 1.140625 -3.546875q1.15625 -1.421875 2.96875 -1.421875q1.5625 0 2.4375 0.515625zm1.331543 5.6875q0 -1.609375 0.859375 -2.59375q0.875 -1.0 2.296875 -1.0q1.5 0 2.328125 0.953125q0.828125 0.953125 0.828125 2.640625q0 1.6875 -0.859375 2.65625q-0.84375 0.96875 -2.296875 0.96875q-1.484375 0 -2.328125 -0.96875q-0.828125 -0.984375 -0.828125 -2.65625zm1.296875 0q0 2.625 1.859375 2.625q0.859375 0 1.34375 -0.703125q0.5 -0.703125 0.5 -1.921875q0 -2.59375 -1.84375 -2.59375q-0.84375 0 -1.359375 0.6875q-0.5 0.6875 -0.5 1.90625zm10.730255 3.5l0 -0.515625q-0.640625 0.640625 -1.875 0.640625q-1.3125 0 -2.1249695 -0.9375q-0.8125 -0.9375 -0.8125 -2.5q0 -1.5625 0.9375 -2.671875q0.9374695 -1.109375 2.2343445 -1.109375q1.078125 0 1.640625 0.5l0 -3.234375l1.234375 0l0 9.828125l-1.234375 0zm0 -5.359375q-0.46875 -0.703125 -1.28125 -0.703125q-1.0 0 -1.609375 0.75q-0.609375 0.734375 -0.609375 1.890625q0 2.515625 2.28125 2.515625q0.296875 0 0.703125 -0.1875q0.40625 -0.1875 0.515625 -0.390625l0 -3.875zm8.878632 2.0l-5.03125 0q0 1.21875 0.671875 1.875q0.59375 0.578125 1.53125 0.578125q1.0625 0 1.765625 -0.625l0.515625 0.890625q-0.28125 0.296875 -0.875 0.5q-0.734375 0.265625 -1.65625 0.265625q-1.3125 0 -2.234375 -0.890625q-1.015625 -0.984375 -1.015625 -2.640625q0 -1.71875 1.046875 -2.765625q0.9375 -0.921875 2.21875 -0.921875q1.5 0 2.34375 0.828125q0.8125 0.8125 0.8125 2.140625q0 0.421875 -0.09375 0.765625zm-3.0 -2.703125q-0.828125 0 -1.390625 0.53125q-0.53125 0.515625 -0.609375 1.265625l3.859375 0q0 -0.75 -0.46875 -1.25q-0.5 -0.546875 -1.390625 -0.546875zm4.488037 4.09375l0 -7.859375l1.25 0l0 7.640625q0 0.5625 0.3125 0.890625q0.328125 0.328125 0.84375 0.328125l0 1.09375q-2.40625 0 -2.40625 -2.09375zm9.712006 -1.390625l-5.03125 0q0 1.21875 0.671875 1.875q0.59375 0.578125 1.53125 0.578125q1.0625 0 1.765625 -0.625l0.515625 0.890625q-0.28125 0.296875 -0.875 0.5q-0.734375 0.265625 -1.65625 0.265625q-1.3125 0 -2.234375 -0.890625q-1.015625 -0.984375 -1.015625 -2.640625q0 -1.71875 1.046875 -2.765625q0.9375 -0.921875 2.21875 -0.921875q1.5 0 2.34375 0.828125q0.8125 0.8125 0.8125 2.140625q0 0.421875 -0.09375 0.765625zm-3.0 -2.703125q-0.828125 0 -1.390625 0.53125q-0.53125 0.515625 -0.609375 1.265625l3.859375 0q0 -0.75 -0.46875 -1.25q-0.5 -0.546875 -1.390625 -0.546875zm4.8474426 0.0625l-0.8125 0l0 -0.96875l0.8125 0l0 -1.453125l1.234375 -0.484375l0 1.9375l1.90625 0l0 0.96875l-1.90625 0l0 3.46875q0 0.875 0.296875 1.25q0.296875 0.375 0.953125 0.375q0.46875 0 0.984375 -0.25l0.171875 1.09375q-0.765625 0.1875 -1.6875 0.1875q-0.828125 0 -1.390625 -0.609375q-0.5625 -0.609375 -0.5625 -1.546875l0 -3.96875z" fill-rule="nonzero"/><path fill="#000000" fill-opacity="0.0" d="m312.5122 228.3574l59.12497 0" fill-rule="evenodd"/><path stroke="#000000" stroke-width="1.0" stroke-linejoin="round" stroke-linecap="butt" d="m312.5122 228.3574l53.12497 0" fill-rule="evenodd"/><path fill="#000000" stroke="#000000" stroke-width="1.0" stroke-linecap="butt" d="m365.63718 230.00914l4.5381165 -1.6517334l-4.5381165 -1.6517334z" fill-rule="evenodd"/><path fill="#76b900" d="m565.8298 209.97415l0 0c0 -5.0772705 4.115967 -9.193207 9.193176 -9.193207l128.08484 0c2.4381714 0 4.7765503 0.9685669 6.5006104 2.692627c1.72406 1.72406 2.692627 4.062378 2.692627 6.50058l0 36.771698c0 5.0772705 -4.115967 9.193207 -9.193237 9.193207l-128.08484 0l0 0c-5.0772095 0 -9.193176 -4.1159363 -9.193176 -9.193207z" fill-rule="evenodd"/><path stroke="#000000" stroke-width="1.0" stroke-linejoin="round" stroke-linecap="butt" d="m565.8298 209.97415l0 0c0 -5.0772705 4.115967 -9.193207 9.193176 -9.193207l128.08484 0c2.4381714 0 4.7765503 0.9685669 6.5006104 2.692627c1.72406 1.72406 2.692627 4.062378 2.692627 6.50058l0 36.771698c0 5.0772705 -4.115967 9.193207 -9.193237 9.193207l-128.08484 0l0 0c-5.0772095 0 -9.193176 -4.1159363 -9.193176 -9.193207z" fill-rule="evenodd"/><path fill="#ffffff" d="m585.31793 233.16l-1.921875 0l0 -9.53125q1.84375 -0.0625 2.359375 -0.0625q2.0 0 3.15625 1.21875q1.171875 1.203125 1.171875 3.21875q0 5.15625 -4.765625 5.15625zm-0.609375 -8.359375l0 7.125q0.4375 0.0625 1.078125 0.0625q1.359375 0 2.140625 -1.015625q0.78125 -1.03125 0.78125 -2.859375q0 -3.375 -3.03125 -3.375q-0.1875 0 -0.96875 0.0625zm12.642639 5.0l-5.03125 0q0 1.21875 0.671875 1.875q0.59375 0.578125 1.53125 0.578125q1.0625 0 1.765625 -0.625l0.515625 0.890625q-0.28125 0.296875 -0.875 0.5q-0.734375 0.265625 -1.65625 0.265625q-1.3125 0 -2.234375 -0.890625q-1.015625 -0.984375 -1.015625 -2.640625q0 -1.71875 1.046875 -2.765625q0.9375 -0.921875 2.21875 -0.921875q1.5 0 2.34375 0.828125q0.8125 0.8125 0.8125 2.140625q0 0.421875 -0.09375 0.765625zm-3.0 -2.703125q-0.828125 0 -1.390625 0.53125q-0.53125 0.515625 -0.609375 1.265625l3.859375 0q0 -0.75 -0.46875 -1.25q-0.5 -0.546875 -1.390625 -0.546875zm4.847473 0.0625l-0.8125 0l0 -0.96875l0.8125 0l0 -1.453125l1.234375 -0.484375l0 1.9375l1.90625 0l0 0.96875l-1.90625 0l0 3.46875q0 0.875 0.296875 1.25q0.296875 0.375 0.953125 0.375q0.46875 0 0.984375 -0.25l0.171875 1.09375q-0.765625 0.1875 -1.6875 0.1875q-0.828125 0 -1.390625 -0.609375q-0.5625 -0.609375 -0.5625 -1.546875l0 -3.96875zm10.706238 2.640625l-5.03125 0q0 1.21875 0.671875 1.875q0.59375 0.578125 1.53125 0.578125q1.0625 0 1.765625 -0.625l0.515625 0.890625q-0.28125 0.296875 -0.875 0.5q-0.734375 0.265625 -1.65625 0.265625q-1.3125 0 -2.234375 -0.890625q-1.015625 -0.984375 -1.015625 -2.640625q0 -1.71875 1.046875 -2.765625q0.9375 -0.921875 2.21875 -0.921875q1.5 0 2.34375 0.828125q0.8125 0.8125 0.8125 2.140625q0 0.421875 -0.09375 0.765625zm-3.0 -2.703125q-0.828125 0 -1.390625 0.53125q-0.53125 0.515625 -0.609375 1.265625l3.859375 0q0 -0.75 -0.46875 -1.25q-0.5 -0.546875 -1.390625 -0.546875zm9.659912 -0.34375l-0.609375 0.875q-0.1875 -0.1875 -0.671875 -0.359375q-0.484375 -0.171875 -0.9375 -0.171875q-1.015625 0 -1.609375 0.71875q-0.59375 0.703125 -0.59375 1.921875q0 1.234375 0.609375 1.875q0.609375 0.640625 1.6875 0.640625q0.828125 0 1.671875 -0.65625l0.484375 1.046875q-0.984375 0.640625 -2.46875 0.640625q-1.421875 0 -2.359375 -0.953125q-0.921875 -0.953125 -0.921875 -2.59375q0 -1.65625 0.96875 -2.65625q0.96875 -1.015625 2.640625 -1.015625q0.546875 0 1.171875 0.234375q0.640625 0.21875 0.9375 0.453125zm1.786499 0.40625l-0.8125 0l0 -0.96875l0.8125 0l0 -1.453125l1.234375 -0.484375l0 1.9375l1.90625 0l0 0.96875l-1.90625 0l0 3.46875q0 0.875 0.296875 1.25q0.296875 0.375 0.953125 0.375q0.46875 0 0.984375 -0.25l0.171875 1.09375q-0.765625 0.1875 -1.6875 0.1875q-0.828125 0 -1.390625 -0.609375q-0.5625 -0.609375 -0.5625 -1.546875l0 -3.96875zm11.096924 6.125l-4.921875 -6.96875l0 6.84375l-1.25 0l0 -9.53125l0.53125 0l4.796875 6.59375l0 -6.59375l1.234375 0l0 9.65625l-0.390625 0zm8.115173 -3.484375l-5.03125 0q0 1.21875 0.671875 1.875q0.59375 0.578125 1.53125 0.578125q1.0625 0 1.765625 -0.625l0.515625 0.890625q-0.28125 0.296875 -0.875 0.5q-0.734375 0.265625 -1.65625 0.265625q-1.3125 0 -2.234375 -0.890625q-1.015625 -0.984375 -1.015625 -2.640625q0 -1.71875 1.046875 -2.765625q0.9375 -0.921875 2.21875 -0.921875q1.5 0 2.34375 0.828125q0.8125 0.8125 0.8125 2.140625q0 0.421875 -0.09375 0.765625zm-3.0 -2.703125q-0.828125 0 -1.390625 0.53125q-0.53125 0.515625 -0.609375 1.265625l3.859375 0q0 -0.75 -0.46875 -1.25q-0.5 -0.546875 -1.390625 -0.546875zm4.847412 0.0625l-0.8125 0l0 -0.96875l0.8125 0l0 -1.453125l1.234375 -0.484375l0 1.9375l1.90625 0l0 0.96875l-1.90625 0l0 3.46875q0 0.875 0.296875 1.25q0.296875 0.375 0.953125 0.375q0.46875 0 0.984375 -0.25l0.171875 1.09375q-0.765625 0.1875 -1.6875 0.1875q-0.828125 0 -1.390625 -0.609375q-0.5625 -0.609375 -0.5625 -1.546875l0 -3.96875zm13.268494 6.0l0 -0.515625q-0.640625 0.640625 -1.875 0.640625q-1.3125 0 -2.125 -0.9375q-0.8125 -0.9375 -0.8125 -2.5q0 -1.5625 0.9375 -2.671875q0.9375 -1.109375 2.234375 -1.109375q1.078125 0 1.640625 0.5l0 -3.234375l1.234375 0l0 9.828125l-1.234375 0zm0 -5.359375q-0.46875 -0.703125 -1.28125 -0.703125q-1.0 0 -1.609375 0.75q-0.609375 0.734375 -0.609375 1.890625q0 2.515625 2.28125 2.515625q0.296875 0 0.703125 -0.1875q0.40625 -0.1875 0.515625 -0.390625l0 -3.875zm8.878601 2.0l-5.03125 0q0 1.21875 0.671875 1.875q0.59375 0.578125 1.53125 0.578125q1.0625 0 1.765625 -0.625l0.515625 0.890625q-0.28125 0.296875 -0.875 0.5q-0.734375 0.265625 -1.65625 0.265625q-1.3125 0 -2.234375 -0.890625q-1.015625 -0.984375 -1.015625 -2.640625q0 -1.71875 1.046875 -2.765625q0.9375 -0.921875 2.21875 -0.921875q1.5 0 2.34375 0.828125q0.8125 0.8125 0.8125 2.140625q0 0.421875 -0.09375 0.765625zm-3.0 -2.703125q-0.828125 0 -1.390625 0.53125q-0.53125 0.515625 -0.609375 1.265625l3.859375 0q0 -0.75 -0.46875 -1.25q-0.5 -0.546875 -1.390625 -0.546875zm9.659973 -0.34375l-0.609375 0.875q-0.1875 -0.1875 -0.671875 -0.359375q-0.484375 -0.171875 -0.9375 -0.171875q-1.015625 0 -1.609375 0.71875q-0.59375 0.703125 -0.59375 1.921875q0 1.234375 0.609375 1.875q0.609375 0.640625 1.6875 0.640625q0.828125 0 1.671875 -0.65625l0.484375 1.046875q-0.984375 0.640625 -2.46875 0.640625q-1.421875 0 -2.359375 -0.953125q-0.921875 -0.953125 -0.921875 -2.59375q0 -1.65625 0.96875 -2.65625q0.96875 -1.015625 2.640625 -1.015625q0.546875 0 1.171875 0.234375q0.640625 0.21875 0.9375 0.453125zm0.880188 2.90625q0 -1.609375 0.859375 -2.59375q0.875 -1.0 2.296875 -1.0q1.5 0 2.328125 0.953125q0.828125 0.953125 0.828125 2.640625q0 1.6875 -0.859375 2.65625q-0.84375 0.96875 -2.296875 0.96875q-1.484375 0 -2.328125 -0.96875q-0.828125 -0.984375 -0.828125 -2.65625zm1.296875 0q0 2.625 1.859375 2.625q0.859375 0 1.34375 -0.703125q0.5 -0.703125 0.5 -1.921875q0 -2.59375 -1.84375 -2.59375q-0.84375 0 -1.359375 0.6875q-0.5 0.6875 -0.5 1.90625zm10.730286 3.5l0 -0.515625q-0.640625 0.640625 -1.875 0.640625q-1.3125 0 -2.125 -0.9375q-0.8125 -0.9375 -0.8125 -2.5q0 -1.5625 0.9375 -2.671875q0.9375 -1.109375 2.234375 -1.109375q1.078125 0 1.640625 0.5l0 -3.234375l1.234375 0l0 9.828125l-1.234375 0zm0 -5.359375q-0.46875 -0.703125 -1.28125 -0.703125q-1.0 0 -1.609375 0.75q-0.609375 0.734375 -0.609375 1.890625q0 2.515625 2.28125 2.515625q0.296875 0 0.703125 -0.1875q0.40625 -0.1875 0.515625 -0.390625l0 -3.875zm8.878662 2.0l-5.03125 0q0 1.21875 0.671875 1.875q0.59375 0.578125 1.53125 0.578125q1.0625 0 1.765625 -0.625l0.515625 0.890625q-0.28125 0.296875 -0.875 0.5q-0.734375 0.265625 -1.65625 0.265625q-1.3125 0 -2.234375 -0.890625q-1.015625 -0.984375 -1.015625 -2.640625q0 -1.71875 1.046875 -2.765625q0.9375 -0.921875 2.21875 -0.921875q1.5 0 2.34375 0.828125q0.8125 0.8125 0.8125 2.140625q0 0.421875 -0.09375 0.765625zm-3.0 -2.703125q-0.828125 0 -1.390625 0.53125q-0.53125 0.515625 -0.609375 1.265625l3.859375 0q0 -0.75 -0.46875 -1.25q-0.5 -0.546875 -1.390625 -0.546875zm8.191162 0.28125q-0.40625 -0.28125 -0.8125 -0.28125q-0.65625 0 -1.15625 0.609375q-0.484375 0.609375 -0.484375 1.453125l0 4.0l-1.25 0l0 -6.96875l1.25 0l0 1.109375q0.671875 -1.234375 2.0 -1.234375q0.34375 0 0.96875 0.109375l-0.515625 1.203125z" fill-rule="nonzero"/><path fill="#000000" fill-opacity="0.0" d="m518.11273 228.36l47.715576 0" fill-rule="evenodd"/><path stroke="#000000" stroke-width="1.0" stroke-linejoin="round" stroke-linecap="butt" d="m518.11273 228.35999l41.715576 0" fill-rule="evenodd"/><path fill="#000000" stroke="#000000" stroke-width="1.0" stroke-linecap="butt" d="m559.8283 230.01172l4.538086 -1.6517334l-4.538086 -1.6517334z" fill-rule="evenodd"/><path fill="#000000" fill-opacity="0.0" d="m142.82178 272.43262l0 -44.06299l29.574814 0" fill-rule="evenodd"/><path stroke="#000000" stroke-width="1.0" stroke-linejoin="round" stroke-linecap="butt" d="m142.8218 272.43262l0 -44.06299l23.574799 0" fill-rule="evenodd"/><path fill="#000000" stroke="#000000" stroke-width="1.0" stroke-linecap="butt" d="m166.39659 230.02136l4.538101 -1.6517334l-4.538101 -1.6517334z" fill-rule="evenodd"/><path fill="#5e5e5e" d="m159.92401 67.656166l104.73465 0c1.6400757 0 3.2129517 0.65151215 4.37265 1.8112106c1.1596985 1.1596985 1.8112183 2.732582 1.8112183 4.3726425l0 30.91851c0 5.41687E-4 -4.5776367E-4 9.765625E-4 -9.765625E-4 9.765625E-4l-117.101395 -9.765625E-4l0 0c-5.340576E-4 0 -9.765625E-4 -4.348755E-4 -9.765625E-4 -9.765625E-4l9.765625E-4 -30.917534l0 0c0 -3.415245 2.7686005 -6.183853 6.183853 -6.183853z" fill-rule="evenodd"/><path stroke="#000000" stroke-width="1.0" stroke-linejoin="round" stroke-linecap="butt" d="m159.92401 67.656166l104.73465 0c1.6400757 0 3.2129517 0.65151215 4.37265 1.8112106c1.1596985 1.1596985 1.8112183 2.732582 1.8112183 4.3726425l0 30.91851c0 5.41687E-4 -4.5776367E-4 9.765625E-4 -9.765625E-4 9.765625E-4l-117.101395 -9.765625E-4l0 0c-5.340576E-4 0 -9.765625E-4 -4.348755E-4 -9.765625E-4 -9.765625E-4l9.765625E-4 -30.917534l0 0c0 -3.415245 2.7686005 -6.183853 6.183853 -6.183853z" fill-rule="evenodd"/><path fill="#ffffff" d="m171.30135 85.146065l-0.671875 0.96875q-0.203125 -0.21875 -0.734375 -0.390625q-0.53125 -0.1875 -1.03125 -0.1875q-1.109375 0 -1.765625 0.78125q-0.65625 0.765625 -0.65625 2.125q0 1.34375 0.671875 2.046875q0.671875 0.703125 1.84375 0.703125q0.921875 0 1.84375 -0.703125l0.546875 1.140625q-1.09375 0.703125 -2.71875 0.703125q-1.5625 0 -2.59375 -1.046875q-1.015625 -1.046875 -1.015625 -2.84375q0 -1.84375 1.0625 -2.953125q1.0625 -1.109375 2.90625 -1.109375q0.59375 0 1.28125 0.25q0.703125 0.25 1.03125 0.515625zm0.9753113 3.203125q0 -1.78125 0.953125 -2.875q0.953125 -1.09375 2.515625 -1.09375q1.640625 0 2.546875 1.0625q0.921875 1.046875 0.921875 2.90625q0 1.84375 -0.9375 2.921875q-0.9375 1.0625 -2.53125 1.0625q-1.640625 0 -2.5625 -1.078125q-0.90625 -1.078125 -0.90625 -2.90625zm1.421875 0q0 2.875 2.046875 2.875q0.953125 0 1.484375 -0.765625q0.546875 -0.78125 0.546875 -2.109375q0 -2.859375 -2.03125 -2.859375q-0.9375 0 -1.5 0.765625q-0.546875 0.75 -0.546875 2.09375zm11.661728 3.84375l0 -4.453125q0 -1.234375 -0.375 -1.71875q-0.375 -0.484375 -1.234375 -0.484375q-0.46875 0 -0.984375 0.28125q-0.5 0.265625 -0.765625 0.671875l0 5.703125l-1.359375 0l0 -7.671875l0.921875 0l0.4375 1.0q0.671875 -1.140625 2.1875 -1.140625q2.53125 0 2.53125 3.0625l0 4.75l-1.359375 0zm7.4298553 -9.59375q-0.421875 -0.140625 -0.765625 -0.140625q-0.625 0 -1.03125 0.484375q-0.40625 0.46875 -0.40625 1.1875q0 0.1875 0.03125 0.390625l1.5625 0l0 1.15625l-1.5625 0l0 6.515625l-1.359375 0l0 -6.515625l-1.109375 0l0 -1.15625l1.109375 0q0 -1.453125 0.71875 -2.296875q0.734375 -0.84375 1.921875 -0.84375q0.59375 0 1.265625 0.21875l-0.375 1.0zm2.6829987 -0.96875q0.34375 0 0.59375 0.25q0.25 0.25 0.25 0.59375q0 0.34375 -0.25 0.59375q-0.25 0.25 -0.59375 0.25q-0.34375 0 -0.59375 -0.25q-0.25 -0.25 -0.25 -0.59375q0 -0.359375 0.234375 -0.59375q0.25 -0.25 0.609375 -0.25zm-0.75 10.5625l0 -6.515625l-1.046875 0l0 -1.15625l2.40625 0l0 7.671875l-1.359375 0zm3.2418213 2.09375l0.734375 -1.078125q1.1875 0.78125 2.1875 0.78125q0.921875 0 1.453125 -0.3125q0.546875 -0.3125 0.546875 -0.796875q0 -0.921875 -1.34375 -0.921875q-0.234375 0 -0.84375 0.125q-0.59375 0.109375 -0.9375 0.109375q-1.625 0 -1.625 -1.234375q0 -0.390625 0.375 -0.6875q0.390625 -0.3125 0.953125 -0.453125q-1.609375 -0.75 -1.609375 -2.625q0 -1.203125 0.828125 -2.0q0.84375 -0.8125 2.078125 -0.8125q1.125 0 1.765625 0.46875l0.671875 -0.8125l0.890625 0.828125l-0.8125 0.625q0.515625 0.671875 0.515625 1.765625q0 1.171875 -0.71875 1.953125q-0.71875 0.78125 -1.890625 0.90625l-1.125 0.109375q-0.203125 0.015625 -0.546875 0.15625q-0.328125 0.125 -0.328125 0.34375q0 0.296875 0.703125 0.296875q0.296875 0 0.953125 -0.109375q0.65625 -0.109375 0.96875 -0.109375q1.125 0 1.75 0.546875q0.640625 0.53125 0.640625 1.484375q0 1.0625 -0.953125 1.703125q-0.9375 0.65625 -2.390625 0.65625q-0.75 0 -1.578125 -0.265625q-0.8125 -0.265625 -1.3125 -0.640625zm2.890625 -8.8125q-0.71875 0 -1.171875 0.515625q-0.4375 0.5 -0.4375 1.203125q0 0.8125 0.421875 1.34375q0.4375 0.515625 1.1875 0.515625q0.71875 0 1.125 -0.515625q0.40625 -0.515625 0.40625 -1.34375q0 -0.703125 -0.4375 -1.203125q-0.4375 -0.515625 -1.09375 -0.515625zm6.3098755 4.703125q0.453125 0 0.765625 0.328125q0.3125 0.3125 0.3125 0.75q0 0.4375 -0.3125 0.765625q-0.3125 0.3125 -0.765625 0.3125q-0.4375 0 -0.765625 -0.3125q-0.3125 -0.328125 -0.3125 -0.765625q0 -0.4375 0.3125 -0.75q0.328125 -0.328125 0.765625 -0.328125zm5.178467 1.59375l0 3.421875l-1.359375 0l0 -10.671875l1.359375 0l0 0.640625q0.765625 -0.78125 1.859375 -0.78125q1.640625 0 2.546875 1.015625q0.90625 1.015625 0.90625 2.984375q0 1.75 -0.921875 2.859375q-0.90625 1.09375 -2.640625 1.09375q-0.484375 0 -1.046875 -0.171875q-0.546875 -0.171875 -0.703125 -0.390625zm0 -5.59375l0 4.46875q0.125 0.1875 0.53125 0.375q0.421875 0.171875 0.8125 0.171875q2.546875 0 2.546875 -2.859375q0 -1.453125 -0.609375 -2.125q-0.59375 -0.671875 -1.921875 -0.671875q-0.28125 0 -0.703125 0.203125q-0.421875 0.1875 -0.65625 0.4375zm7.9622955 5.46875l-0.484375 0.6875l-0.671875 0l0 -10.953125l1.359375 0l0 3.71875q0.1875 -0.265625 0.71875 -0.484375q0.53125 -0.234375 1.046875 -0.234375q1.578125 0 2.546875 1.09375q0.984375 1.09375 0.984375 2.75q0 1.921875 -0.984375 3.015625q-0.96875 1.09375 -2.640625 1.09375q-0.546875 0 -1.078125 -0.203125q-0.53125 -0.203125 -0.796875 -0.484375zm0.203125 -5.515625l0 4.421875q0 0.109375 0.5 0.375q0.515625 0.265625 0.78125 0.265625q1.390625 0 1.984375 -0.65625q0.609375 -0.671875 0.609375 -2.25q0 -1.296875 -0.703125 -2.015625q-0.703125 -0.734375 -1.890625 -0.734375q-0.25 0 -0.703125 0.21875q-0.4375 0.203125 -0.578125 0.375zm7.2904205 -0.53125l-0.890625 0l0 -1.078125l0.890625 0l0 -1.59375l1.359375 -0.53125l0 2.125l2.109375 0l0 1.078125l-2.109375 0l0 3.8125q0 0.96875 0.328125 1.375q0.328125 0.40625 1.046875 0.40625q0.515625 0 1.078125 -0.265625l0.203125 1.1875q-0.84375 0.21875 -1.859375 0.21875q-0.90625 0 -1.53125 -0.671875q-0.625 -0.671875 -0.625 -1.703125l0 -4.359375zm9.982849 6.59375l-2.078125 -2.796875l-1.875 2.796875l-1.59375 0l2.796875 -3.921875l-2.5625 -3.75l1.53125 0l1.71875 2.640625l1.921875 -2.640625l1.5 0l-2.78125 3.75l3.046875 3.921875l-1.625 0zm3.1705627 -6.59375l-0.890625 0l0 -1.078125l0.890625 0l0 -1.59375l1.359375 -0.53125l0 2.125l2.109375 0l0 1.078125l-2.109375 0l0 3.8125q0 0.96875 0.328125 1.375q0.328125 0.40625 1.046875 0.40625q0.515625 0 1.078125 -0.265625l0.203125 1.1875q-0.84375 0.21875 -1.859375 0.21875q-0.90625 0 -1.53125 -0.671875q-0.625 -0.671875 -0.625 -1.703125l0 -4.359375z" fill-rule="nonzero"/><path fill="#000000" fill-opacity="0.0" d="m270.84253 86.20735l174.2677 0l0 27.779526" fill-rule="evenodd"/><path stroke="#000000" stroke-width="1.0" stroke-linejoin="round" stroke-linecap="butt" d="m270.84253 86.20735l174.2677 0l0 27.779526" fill-rule="evenodd"/></g></svg>